<?xml version="1.0" standalone="no"?>
<!DOCTYPE svg PUBLIC "-//W3C//DTD SVG 20010904//EN"
 "http://www.w3.org/TR/2001/REC-SVG-20010904/DTD/svg10.dtd">
<svg version="1.0" xmlns="http://www.w3.org/2000/svg"
 width="1920.000000pt" height="1080.000000pt" viewBox="0 0 1920.000000 1080.000000"
 preserveAspectRatio="xMidYMid meet">
<metadata>
Created by potrace 1.16, written by Peter Selinger 2001-2019
</metadata>
<g transform="translate(0.000000,1080.000000) scale(0.100000,-0.100000)"
fill="#000000" stroke="none">
<path d="M9600 6121 l-30 -29 0 -461 0 -460 27 -21 c19 -15 35 -19 53 -15 53
12 56 26 64 260 7 241 12 264 70 303 96 65 198 43 237 -53 8 -20 13 -99 13
-247 1 -215 1 -217 25 -242 47 -50 113 -24 126 48 4 19 5 131 3 248 -3 196 -5
217 -26 263 -38 82 -98 132 -180 150 -63 13 -188 -31 -236 -84 -10 -11 -23
-18 -27 -15 -5 3 -9 79 -9 168 0 142 -2 167 -17 184 -31 36 -60 37 -93 3z"/>
<path d="M13350 6121 l-30 -29 0 -151 c0 -83 -3 -151 -6 -151 -3 0 -21 12 -39
26 -72 54 -203 70 -295 35 -168 -64 -265 -264 -216 -446 49 -182 170 -285 335
-285 81 0 123 12 173 51 41 33 48 35 48 16 0 -20 43 -57 67 -57 11 0 31 9 44
19 l24 19 3 439 c3 442 1 485 -21 514 -25 32 -55 33 -87 0z m-164 -406 c92
-47 145 -164 125 -277 -6 -33 -18 -74 -28 -90 -90 -154 -314 -115 -367 63 -44
146 9 271 133 315 53 19 81 17 137 -11z"/>
<path d="M10901 6073 c-20 -19 -48 -75 -86 -168 -32 -77 -77 -185 -100 -240
-23 -55 -77 -185 -120 -288 l-78 -188 20 -27 c25 -34 72 -41 96 -15 9 11 36
64 60 118 l45 100 197 3 c124 1 202 -1 210 -8 7 -5 27 -48 45 -95 39 -100 69
-135 116 -135 68 0 71 58 8 207 -60 143 -95 226 -199 478 -99 240 -109 259
-142 274 -34 16 -39 14 -72 -16z m118 -402 c33 -84 61 -157 61 -162 0 -5 -63
-9 -140 -9 -84 0 -140 4 -140 10 0 9 112 276 132 314 5 10 13 14 18 10 4 -5
35 -78 69 -163z"/>
<path d="M6795 6015 c-97 -61 -122 -81 -129 -105 -7 -25 -5 -36 11 -58 29 -40
65 -39 133 1 47 29 60 32 64 20 3 -8 6 -171 6 -362 0 -324 1 -349 18 -364 30
-27 87 -22 111 9 21 26 21 37 21 451 0 487 1 483 -80 482 -26 0 -66 -19 -155
-74z"/>
<path d="M7446 6069 c-31 -24 -35 -68 -8 -92 15 -14 41 -17 145 -17 l127 0 0
-375 c0 -316 2 -381 15 -405 27 -52 75 -64 116 -31 l24 19 5 394 5 393 131 3
c115 2 134 5 149 22 24 27 22 70 -5 92 -20 17 -49 18 -350 18 -316 0 -328 -1
-354 -21z"/>
<path d="M8432 5856 c-120 -39 -205 -151 -233 -307 -14 -78 -1 -166 33 -233
34 -66 112 -141 181 -172 123 -56 279 -32 381 57 46 41 55 64 36 100 -15 28
-58 24 -128 -12 -110 -57 -215 -49 -296 22 -42 38 -82 111 -71 130 4 5 109 9
249 9 l243 0 23 25 c20 21 22 31 17 81 -12 113 -98 234 -204 284 -60 29 -169
36 -231 16z m173 -136 c63 -30 115 -85 115 -121 0 -18 -11 -19 -183 -19 -101
0 -186 3 -190 6 -10 11 19 56 60 95 63 60 128 73 198 39z"/>
<path d="M9153 5852 c-104 -37 -174 -106 -230 -228 -21 -47 -26 -72 -26 -138
1 -276 248 -445 506 -346 105 40 147 100 99 143 -26 23 -52 21 -124 -9 -127
-53 -244 -19 -305 91 -37 66 -38 165 -4 237 24 51 86 113 127 128 52 20 128
12 192 -21 70 -37 107 -34 123 8 12 33 -4 78 -35 96 -95 54 -235 71 -323 39z"/>
<path d="M11613 5852 c-106 -38 -178 -107 -230 -218 -37 -80 -39 -209 -4 -296
66 -168 262 -265 432 -214 130 39 183 88 157 144 -18 38 -57 40 -130 7 -51
-23 -71 -27 -129 -23 -56 3 -76 9 -111 34 -67 47 -93 102 -93 199 0 70 4 87
30 135 18 33 47 66 73 85 40 27 51 30 121 30 68 0 83 -3 119 -27 48 -32 82
-35 105 -10 23 25 21 64 -3 95 -49 62 -237 95 -337 59z"/>
<path d="M12229 5856 c-92 -33 -154 -92 -203 -196 -29 -60 -31 -73 -31 -170 0
-99 2 -110 33 -172 73 -150 230 -233 365 -194 30 9 77 31 105 50 l50 33 13
-31 c18 -39 55 -59 83 -44 45 24 45 28 46 366 0 309 -1 323 -20 342 -11 11
-31 20 -44 20 -29 0 -66 -28 -70 -53 -3 -22 -11 -21 -61 9 -91 53 -189 68
-266 40z m209 -145 c21 -10 45 -27 54 -38 62 -69 77 -210 32 -301 -60 -121
-217 -162 -310 -80 -59 52 -78 100 -78 198 0 68 4 93 21 126 26 49 83 102 121
110 15 3 32 7 37 10 19 7 87 -7 123 -25z"/>
<path d="M13769 5856 c-113 -40 -186 -131 -224 -277 -46 -174 44 -360 209
-435 122 -56 279 -32 380 57 46 41 55 64 36 100 -16 28 -58 24 -129 -13 -137
-71 -281 -36 -346 83 -15 27 -24 56 -21 64 4 13 45 15 249 15 242 0 244 0 265
23 28 29 28 75 3 150 -38 110 -104 180 -210 224 -64 26 -154 30 -212 9z m169
-132 c57 -24 122 -94 122 -134 0 -13 -366 -14 -374 -1 -8 12 43 84 77 111 52
41 115 49 175 24z"/>
<path d="M14587 5859 c-45 -11 -90 -33 -135 -66 l-33 -24 -10 30 c-12 35 -35
51 -73 51 -56 0 -56 -3 -56 -356 0 -311 1 -325 20 -344 11 -11 27 -20 35 -20
23 0 63 22 72 39 4 9 10 115 13 236 5 210 6 221 28 253 55 77 180 96 242 37
17 -16 35 -45 40 -64 5 -20 10 -131 10 -247 0 -198 1 -212 20 -232 22 -23 59
-28 90 -12 33 18 40 66 40 275 l0 201 37 44 c77 90 191 94 251 9 14 -20 18
-59 22 -254 3 -160 9 -237 18 -252 14 -26 51 -38 86 -29 43 11 48 44 44 307
-3 231 -4 246 -26 291 -47 96 -127 144 -226 136 -66 -5 -148 -44 -200 -95
l-39 -38 -16 25 c-29 45 -75 80 -125 95 -55 17 -73 17 -129 4z"/>
<path d="M15484 5835 l-25 -25 3 -263 3 -262 28 -48 c36 -62 94 -103 165 -118
48 -10 67 -9 122 5 36 9 81 28 100 41 l35 25 3 -28 c5 -46 -20 -103 -59 -134
-49 -39 -128 -47 -219 -23 -109 29 -107 29 -135 1 -46 -46 -10 -102 90 -137
78 -28 216 -24 286 8 62 28 125 92 158 162 l26 56 3 355 c2 326 1 357 -15 376
-29 35 -57 38 -90 10 l-28 -24 -5 -209 c-5 -192 -7 -212 -29 -256 -32 -65 -80
-97 -148 -97 -41 0 -58 5 -83 26 -62 52 -65 66 -68 316 l-4 228 -25 20 c-34
27 -59 25 -89 -5z"/>
<path d="M8679 4911 c-102 -22 -120 -31 -154 -75 -23 -30 -33 -66 -19 -66 28
0 97 26 104 40 13 24 92 44 173 45 56 0 71 -4 82 -19 29 -39 -27 -80 -125 -93
l-45 -6 28 36 c26 34 27 37 8 37 -11 0 -39 -18 -63 -41 -30 -28 -56 -43 -86
-49 -56 -10 -62 -18 -34 -40 l22 -19 -30 -47 c-45 -72 -38 -113 25 -134 92
-30 265 49 265 122 0 35 -27 53 -103 71 -32 7 -58 17 -58 22 0 6 17 14 38 19
110 25 144 38 178 70 30 28 36 41 33 67 -7 69 -95 91 -239 60z m74 -272 c15
-7 27 -17 27 -24 0 -21 -45 -54 -92 -66 -90 -24 -134 17 -86 82 22 29 26 31
73 26 28 -3 62 -11 78 -18z"/>
<path d="M12425 4924 c-11 -2 -55 -12 -98 -21 -55 -12 -85 -24 -103 -42 -34
-34 -57 -78 -44 -86 16 -10 93 17 116 40 25 26 136 50 196 42 106 -14 58 -96
-67 -114 -51 -7 -57 3 -20 37 13 12 22 27 19 31 -7 13 -43 -8 -86 -49 -27 -25
-50 -37 -80 -41 -47 -7 -62 -31 -29 -47 20 -9 20 -10 -9 -53 -36 -53 -39 -100
-9 -127 50 -45 218 -9 274 58 30 35 32 59 7 81 -22 20 -96 47 -128 47 -14 0
-24 6 -24 14 0 9 22 18 63 25 87 17 164 56 183 93 19 37 12 73 -19 92 -23 16
-108 28 -142 20z m7 -285 c32 -17 19 -51 -32 -76 -54 -28 -100 -29 -131 -4
l-23 19 28 42 28 43 55 -7 c30 -4 64 -11 75 -17z"/>
<path d="M14115 4924 c-61 -10 -132 -34 -147 -51 -18 -21 -37 -82 -31 -100 3
-7 21 -13 41 -13 33 0 34 1 17 14 -18 13 -16 15 25 26 25 6 61 15 80 21 42 11
180 12 180 2 0 -5 -29 -48 -65 -98 -75 -105 -139 -224 -133 -251 6 -33 35 -27
62 13 14 21 26 47 26 58 0 17 59 123 149 269 15 24 10 59 -13 91 -11 16 -27
20 -88 21 -40 1 -86 0 -103 -2z"/>
<path d="M10582 4865 c-31 -30 -93 -106 -137 -168 -76 -109 -82 -115 -122
-121 -30 -5 -50 -16 -68 -37 -32 -39 -34 -64 -2 -54 57 18 134 16 219 -4 69
-17 91 -19 106 -10 20 12 46 48 40 55 -2 2 -44 13 -93 25 -141 33 -136 21 -59
127 77 108 149 190 158 181 4 -3 -11 -37 -33 -75 -45 -79 -56 -110 -42 -118
12 -8 71 42 71 60 0 8 13 40 29 72 65 129 32 162 -67 67z"/>
<path d="M10052 4832 c-15 -22 -36 -58 -47 -81 -16 -36 -22 -41 -42 -36 -12 3
-38 -1 -57 -9 -41 -17 -116 -83 -116 -102 0 -7 -16 -25 -35 -40 -27 -20 -39
-24 -47 -16 -8 8 -2 26 25 66 38 57 45 80 27 91 -15 9 -54 -18 -122 -83 -62
-59 -77 -54 -28 8 36 45 38 63 8 58 -15 -2 -37 -24 -61 -60 -21 -32 -45 -58
-54 -58 -10 0 -13 6 -8 18 26 67 8 132 -35 132 -37 0 -105 -53 -128 -100 -17
-36 -122 -142 -122 -124 0 9 42 81 76 132 24 35 32 82 14 82 -5 0 -22 -16 -37
-36 -41 -51 -144 -127 -156 -115 -7 7 6 28 41 65 54 56 64 82 36 93 -20 7 -67
-36 -110 -103 -38 -59 -104 -100 -136 -83 -31 17 -21 43 28 68 47 26 94 73 94
96 0 22 -32 33 -67 23 -46 -12 -120 -88 -128 -131 -20 -107 68 -146 150 -67
17 16 34 30 38 30 3 0 13 -13 22 -30 19 -38 32 -38 75 0 19 16 38 29 43 30 4
0 -13 -37 -38 -83 -45 -84 -56 -127 -32 -127 7 0 17 8 24 18 23 37 156 192
165 192 4 0 13 -11 18 -25 5 -14 21 -30 34 -37 21 -9 30 -7 52 8 38 27 45 31
81 47 31 15 32 14 42 -14 14 -39 33 -36 65 10 31 44 74 87 81 80 2 -3 -4 -23
-15 -45 -24 -45 -23 -87 2 -92 9 -2 34 13 56 32 22 20 44 36 49 36 5 0 14 -13
20 -30 15 -41 41 -38 88 10 21 22 42 40 45 40 3 0 4 -17 2 -38 -7 -75 41 -80
103 -11 42 47 40 61 -5 29 -17 -12 -37 -19 -45 -16 -32 12 -10 83 64 206 48
80 64 130 41 130 -5 0 -22 -17 -38 -38z"/>
<path d="M13703 4789 c-41 -71 -49 -80 -70 -74 -42 10 -134 -49 -163 -105 -10
-19 -32 -43 -49 -53 -28 -16 -32 -17 -37 -2 -4 9 6 32 22 56 16 22 33 46 38
53 12 18 1 46 -19 46 -8 0 -49 -32 -90 -71 -45 -43 -75 -65 -75 -56 0 9 14 32
30 50 35 40 38 57 11 57 -21 0 -62 -44 -87 -91 -8 -16 -23 -29 -33 -29 -17 0
-18 3 -4 41 12 37 12 46 -2 75 -11 24 -23 34 -39 34 -32 0 -87 -39 -111 -79
-25 -43 -132 -158 -139 -150 -3 3 19 44 49 92 30 48 55 93 55 101 0 31 -18 24
-66 -26 -51 -52 -121 -108 -136 -108 -19 0 -6 32 28 67 55 58 69 82 56 95 -18
18 -58 -8 -98 -63 -19 -26 -34 -51 -34 -56 0 -17 -75 -63 -102 -63 -27 0 -54
23 -44 39 3 5 31 23 61 40 55 31 75 55 75 89 0 63 -133 2 -176 -80 -27 -51
-14 -116 26 -138 25 -13 83 9 122 47 15 15 29 25 31 22 2 -2 11 -16 20 -31 22
-35 31 -35 74 3 19 16 37 28 40 26 2 -3 -16 -43 -42 -90 -41 -76 -50 -117 -26
-117 4 0 47 47 94 105 48 58 91 105 96 105 5 0 13 -9 16 -20 9 -28 48 -52 71
-44 10 4 28 15 39 25 11 9 37 24 57 32 l37 15 6 -29 c4 -16 12 -29 19 -29 7 0
36 27 65 60 29 33 57 60 62 60 5 0 -2 -23 -16 -51 -45 -88 -8 -119 64 -54 21
19 41 35 44 35 4 0 13 -13 22 -30 21 -40 41 -38 85 10 20 22 40 40 43 40 4 0
7 -20 7 -44 0 -71 33 -71 99 -2 38 40 35 63 -4 26 -14 -13 -31 -20 -39 -17
-36 14 -12 88 73 232 22 38 41 78 41 87 0 40 -32 13 -77 -63z"/>
<path d="M14768 4853 c-8 -10 -30 -46 -49 -79 -32 -59 -35 -61 -71 -60 -46 1
-111 -43 -151 -102 -28 -42 -66 -60 -52 -24 24 62 11 132 -25 132 -48 0 -133
-72 -146 -125 -9 -35 14 -95 40 -104 21 -8 66 3 76 18 3 5 24 17 47 29 l42 20
20 -34 c11 -19 26 -34 34 -34 7 0 31 18 52 40 46 48 59 50 50 11 -7 -34 9 -71
31 -71 8 0 34 18 59 41 l44 40 16 -30 c20 -40 43 -39 85 4 19 19 37 35 42 35
4 0 6 -17 5 -37 -3 -53 28 -56 81 -9 22 20 42 36 46 36 4 0 11 -11 16 -25 15
-39 36 -40 80 -5 23 18 43 31 45 28 2 -2 -16 -37 -40 -78 -41 -69 -58 -130
-36 -130 6 0 44 43 86 95 42 52 81 97 86 100 11 8 32 45 24 45 -3 0 -28 -21
-56 -47 -27 -25 -52 -44 -54 -41 -3 3 19 43 50 89 48 74 69 129 48 129 -3 0
-38 -31 -77 -68 -78 -76 -111 -98 -121 -82 -4 6 17 36 45 67 50 55 60 85 29
91 -20 4 -84 -61 -110 -110 -22 -43 -62 -73 -84 -64 -20 7 -19 32 4 70 11 17
21 49 23 71 3 36 0 40 -21 43 -58 9 -126 -39 -238 -163 -34 -38 -57 -44 -67
-19 -11 28 11 85 69 183 62 104 75 141 53 141 -8 0 -22 -8 -30 -17z"/>
<path d="M11518 4790 c-17 -17 -40 -30 -54 -30 -25 0 -74 -40 -74 -60 0 -5 11
-10 25 -10 14 0 25 -5 25 -11 0 -5 -29 -39 -64 -75 -53 -55 -68 -65 -92 -62
-42 5 -41 29 5 82 45 51 53 86 22 86 -20 0 -101 -84 -101 -105 0 -20 -58 -68
-74 -62 -24 9 -19 33 14 70 30 34 39 70 21 82 -5 3 -43 -24 -83 -59 -40 -35
-74 -63 -76 -61 -1 1 11 25 29 53 32 52 33 82 3 82 -9 0 -49 -31 -88 -70 -40
-38 -76 -70 -79 -70 -16 0 -5 24 28 63 41 48 43 57 10 57 -17 0 -32 -12 -53
-42 -16 -24 -32 -51 -35 -61 -8 -22 -70 -52 -91 -44 -26 10 -18 44 18 85 40
44 49 75 23 80 -45 9 -113 -96 -104 -161 10 -73 52 -85 115 -32 36 30 38 30
45 5 7 -26 32 -26 50 0 29 42 101 113 104 103 2 -5 -8 -34 -21 -63 -43 -93
-16 -95 73 -5 35 36 66 64 68 62 2 -2 -8 -26 -22 -54 -44 -84 -12 -108 64 -48
24 19 45 35 46 35 2 0 12 -16 24 -35 28 -47 51 -45 112 12 l50 46 -6 -39 c-11
-76 28 -83 105 -19 23 19 45 35 49 35 4 0 13 -11 19 -25 26 -56 88 -53 162 6
54 43 51 56 -5 23 -54 -31 -69 -25 -32 14 39 41 48 74 36 132 -12 54 -31 65
-50 28 -6 -13 -43 -56 -83 -96 -106 -109 -154 -128 -143 -54 9 51 52 112 80
112 29 0 62 51 45 68 -9 9 -9 15 0 24 15 15 16 38 1 38 -6 0 -24 -13 -41 -30z"/>
</g>
</svg>
