<?xml version="1.0" standalone="no"?>
<!DOCTYPE svg PUBLIC "-//W3C//DTD SVG 20010904//EN"
 "http://www.w3.org/TR/2001/REC-SVG-20010904/DTD/svg10.dtd">
<svg version="1.0" xmlns="http://www.w3.org/2000/svg"
 width="1920.000000pt" height="1080.000000pt" viewBox="0 0 1920.000000 1080.000000"
 preserveAspectRatio="xMidYMid meet">
<metadata>
Created by potrace 1.16, written by Peter Selinger 2001-2019
</metadata>
<g transform="translate(0.000000,1080.000000) scale(0.100000,-0.100000)"
fill="#000000" stroke="none">
<path d="M9600 6121 l-30 -29 0 -461 0 -460 27 -21 c32 -25 69 -20 96 12 14
17 17 41 18 142 0 66 4 170 8 230 l7 109 41 38 c92 85 219 66 255 -40 8 -24
12 -108 12 -248 1 -210 1 -212 25 -237 47 -50 113 -24 126 48 4 19 5 131 3
248 -3 196 -5 217 -26 263 -76 166 -263 200 -407 74 -18 -16 -35 -26 -39 -22
-3 3 -6 79 -6 169 0 140 -2 165 -17 182 -31 36 -60 37 -93 3z"/>
<path d="M13350 6122 l-30 -30 0 -151 c0 -83 -3 -151 -6 -151 -3 0 -21 12 -39
26 -102 78 -276 70 -386 -17 -80 -63 -139 -191 -139 -299 1 -152 101 -313 225
-359 106 -40 263 -19 314 42 19 23 25 21 38 -13 20 -54 102 -50 123 6 6 15 10
200 10 460 0 357 -3 441 -14 469 -8 19 -19 35 -25 35 -5 0 -16 3 -25 6 -10 4
-27 -6 -46 -24z m-174 -401 c86 -39 139 -138 137 -251 -2 -97 -43 -166 -118
-201 -112 -52 -241 14 -280 143 -43 145 10 270 134 314 49 18 79 17 127 -5z"/>
<path d="M10901 6073 c-18 -18 -49 -78 -86 -168 -32 -77 -75 -180 -96 -230
-149 -352 -199 -480 -193 -499 15 -45 77 -62 107 -28 9 10 36 63 60 117 l45
100 197 3 c124 1 202 -1 210 -8 7 -5 27 -48 45 -95 39 -100 69 -135 116 -135
68 0 71 59 10 202 -24 56 -99 236 -166 398 -145 350 -141 343 -175 358 -36 17
-41 16 -74 -15z m118 -402 c33 -85 61 -158 61 -163 0 -4 -63 -8 -140 -8 -85 0
-140 4 -140 10 0 10 113 278 132 314 5 10 13 14 18 10 4 -5 35 -78 69 -163z"/>
<path d="M6795 6015 c-97 -61 -122 -81 -129 -105 -7 -25 -5 -36 11 -58 28 -38
64 -39 123 -3 86 53 80 77 80 -327 0 -335 1 -360 18 -375 30 -27 87 -22 112
10 20 26 21 32 18 466 -3 421 -4 439 -22 453 -41 30 -85 17 -211 -61z"/>
<path d="M7447 6070 c-32 -25 -36 -69 -9 -93 15 -14 41 -17 145 -17 l127 0 0
-375 c0 -316 2 -381 15 -405 27 -52 75 -64 116 -31 l24 19 5 394 5 393 131 3
c115 2 134 5 149 22 22 24 23 67 1 88 -15 15 -55 17 -350 20 -325 3 -333 2
-359 -18z"/>
<path d="M8413 5850 c-177 -71 -273 -335 -188 -518 54 -117 177 -205 304 -218
77 -9 181 22 248 73 57 43 63 50 63 84 0 57 -48 64 -136 19 -112 -58 -217 -50
-298 21 -42 38 -82 111 -71 130 4 5 109 9 249 9 l243 0 23 25 c20 21 22 31 17
81 -11 111 -85 219 -187 273 -82 44 -188 52 -267 21z m192 -130 c63 -30 115
-85 115 -121 0 -18 -11 -19 -183 -19 -101 0 -186 3 -190 6 -10 10 18 56 55 91
65 62 133 77 203 43z"/>
<path d="M9165 5856 c-102 -32 -176 -100 -231 -211 -34 -68 -37 -82 -36 -157
1 -280 246 -447 507 -348 99 38 143 102 97 143 -26 24 -61 21 -127 -9 -47 -22
-67 -26 -123 -22 -83 4 -138 39 -179 113 -24 42 -28 61 -27 120 1 82 19 129
72 187 70 78 165 91 270 37 44 -23 68 -30 87 -25 35 9 49 47 31 90 -30 73
-223 119 -341 82z"/>
<path d="M11616 5854 c-100 -32 -181 -109 -233 -220 -24 -51 -28 -72 -27 -149
0 -113 25 -183 94 -258 72 -79 149 -112 260 -112 139 0 263 58 263 123 0 64
-50 80 -126 40 -33 -18 -59 -23 -124 -23 -74 0 -85 3 -125 30 -28 20 -53 49
-71 85 -25 49 -28 63 -24 126 5 90 43 165 105 209 40 27 51 30 121 30 68 0 83
-3 119 -27 48 -32 82 -35 105 -10 23 25 21 64 -3 95 -47 60 -233 94 -334 61z"/>
<path d="M12234 5859 c-91 -26 -184 -124 -223 -234 -32 -90 -27 -215 11 -297
51 -111 146 -186 262 -210 67 -13 140 6 215 56 49 33 50 34 57 13 17 -58 76
-76 114 -35 19 21 20 34 20 345 0 310 -1 324 -20 343 -11 11 -31 20 -44 20
-29 0 -66 -28 -70 -53 -3 -22 -11 -21 -61 9 -87 51 -181 66 -261 43z m204
-148 c75 -38 111 -109 112 -217 0 -134 -79 -232 -194 -242 -71 -6 -117 11
-160 58 -86 95 -87 263 -3 355 69 75 156 92 245 46z"/>
<path d="M13769 5857 c-113 -43 -187 -132 -223 -274 -19 -74 -20 -122 -2 -188
30 -113 105 -203 211 -252 119 -55 279 -30 379 58 46 41 55 64 36 100 -16 28
-58 24 -130 -13 -55 -29 -73 -33 -139 -33 -105 1 -166 38 -213 128 -34 68 -37
67 235 67 l244 0 23 25 c20 21 22 31 17 79 -12 114 -92 227 -199 282 -64 33
-180 43 -239 21z m154 -128 c59 -16 137 -95 137 -139 0 -13 -366 -14 -374 -1
-8 12 43 84 77 111 48 38 97 47 160 29z"/>
<path d="M14587 5859 c-47 -11 -115 -45 -144 -72 l-23 -20 -11 32 c-12 35 -35
51 -73 51 -56 0 -56 -3 -56 -356 0 -311 1 -325 20 -344 11 -11 27 -20 35 -20
23 0 63 22 72 39 4 9 10 115 13 236 5 210 6 221 28 253 55 77 180 96 242 37
17 -16 35 -45 40 -64 5 -20 10 -132 10 -248 0 -200 1 -214 20 -233 22 -22 60
-26 90 -10 33 18 40 66 40 275 l0 201 37 44 c83 96 209 95 254 -3 16 -37 19
-67 19 -250 0 -163 3 -214 15 -236 25 -50 82 -56 115 -14 21 26 21 35 18 278
-3 239 -4 252 -27 297 -81 164 -270 183 -426 42 l-40 -36 -15 23 c-28 44 -75
80 -124 94 -55 17 -73 17 -129 4z"/>
<path d="M15484 5835 l-25 -25 3 -263 3 -262 28 -48 c36 -61 94 -103 164 -118
48 -11 65 -10 122 4 36 10 82 29 101 42 40 29 45 23 35 -41 -17 -114 -126
-160 -280 -118 -96 26 -100 26 -124 7 -35 -28 -31 -71 9 -104 51 -43 128 -62
229 -57 146 7 234 65 293 194 22 47 23 60 26 393 3 366 1 389 -44 409 -28 13
-68 0 -80 -27 -4 -9 -10 -108 -14 -221 -5 -188 -7 -209 -29 -253 -31 -64 -80
-97 -144 -97 -61 0 -98 21 -129 74 -22 39 -23 51 -26 268 l-4 228 -25 20 c-34
27 -59 25 -89 -5z"/>
<path d="M8704 4916 c-109 -21 -141 -34 -174 -74 -28 -34 -40 -72 -22 -72 28
0 90 26 108 45 32 34 173 56 229 35 21 -8 26 -16 23 -38 -4 -33 -50 -59 -124
-69 l-49 -6 29 37 c15 21 26 40 23 42 -9 10 -64 -25 -90 -56 -19 -22 -39 -33
-72 -39 -59 -11 -65 -18 -37 -41 l22 -19 -30 -47 c-35 -56 -38 -86 -11 -113
40 -40 132 -36 222 9 52 27 79 58 79 92 0 35 -27 53 -102 70 -31 7 -57 18 -58
23 -1 6 16 14 37 19 110 25 144 38 178 70 30 28 36 41 33 67 -6 64 -86 89
-214 65z m17 -266 c20 -6 43 -18 50 -26 31 -37 -95 -100 -160 -79 -38 12 -43
38 -14 78 29 40 55 46 124 27z"/>
<path d="M12380 4916 c-126 -25 -151 -36 -182 -85 -16 -26 -24 -49 -19 -54 13
-13 93 13 117 39 20 21 113 44 180 44 37 0 74 -25 74 -50 0 -25 -63 -58 -125
-67 -51 -7 -57 3 -20 37 13 12 22 27 19 31 -7 13 -43 -8 -86 -49 -27 -25 -50
-37 -80 -41 -47 -7 -62 -31 -29 -47 20 -9 20 -10 -9 -53 -36 -53 -39 -100 -9
-127 30 -27 127 -25 197 6 59 25 105 72 100 103 -4 30 -51 59 -113 72 -31 6
-57 15 -58 20 -1 5 34 17 78 27 95 22 158 57 175 97 34 83 -59 126 -210 97z
m52 -277 c32 -17 19 -51 -32 -76 -54 -28 -100 -29 -130 -5 -20 16 -21 21 -10
43 28 54 41 62 99 55 29 -4 62 -11 73 -17z"/>
<path d="M14115 4924 c-61 -10 -132 -34 -147 -51 -18 -21 -37 -82 -31 -100 3
-7 21 -13 41 -13 33 0 34 1 17 14 -18 13 -16 15 25 26 25 6 61 15 80 21 46 12
180 12 180 0 0 -5 -24 -42 -53 -81 -114 -151 -170 -279 -125 -288 20 -4 68 62
68 93 0 17 59 123 149 269 15 24 10 59 -13 91 -11 16 -27 20 -88 21 -40 1 -86
0 -103 -2z"/>
<path d="M10571 4853 c-36 -38 -97 -114 -136 -170 -66 -96 -72 -101 -112 -108
-30 -4 -50 -15 -68 -36 -35 -42 -34 -64 3 -53 44 14 162 9 234 -9 53 -14 71
-15 86 -6 20 12 46 48 40 55 -2 2 -44 13 -93 25 -141 33 -135 21 -62 125 75
104 152 192 161 183 4 -3 -11 -37 -33 -75 -45 -79 -56 -110 -42 -118 12 -8 71
42 71 60 0 8 13 41 29 73 17 32 31 71 33 87 2 24 -1 30 -21 32 -19 3 -38 -11
-90 -65z"/>
<path d="M10043 4818 c-18 -29 -37 -65 -43 -79 -10 -22 -18 -26 -50 -25 -48 1
-110 -40 -154 -102 -39 -54 -73 -79 -89 -63 -8 8 0 25 26 64 38 54 45 81 27
92 -15 9 -54 -18 -122 -83 -62 -59 -77 -54 -28 8 36 45 38 63 8 58 -15 -2 -37
-24 -61 -60 -21 -32 -45 -58 -54 -58 -10 0 -13 6 -8 18 15 40 16 73 4 101 -17
37 -46 41 -94 11 -31 -19 -85 -86 -85 -106 0 -5 -25 -31 -55 -57 -30 -27 -55
-45 -55 -41 0 9 43 82 76 132 24 35 32 82 14 82 -5 0 -24 -19 -42 -41 -43 -54
-138 -123 -152 -109 -6 6 8 28 42 64 54 56 64 82 36 93 -20 7 -67 -37 -111
-105 -39 -61 -102 -98 -135 -81 -31 17 -21 43 28 68 47 26 94 73 94 96 0 42
-67 35 -129 -14 -52 -41 -75 -91 -66 -142 13 -78 85 -87 150 -19 16 17 32 30
37 30 4 0 14 -13 23 -30 20 -38 31 -38 78 1 44 36 58 32 29 -8 -31 -45 -72
-131 -72 -153 0 -25 21 -26 37 -2 20 33 155 192 163 192 4 0 12 -11 18 -25 7
-14 23 -30 36 -37 21 -9 30 -7 52 8 38 27 45 31 81 47 31 15 32 14 42 -14 14
-39 33 -36 65 10 31 44 74 87 81 80 2 -3 -4 -23 -15 -45 -24 -45 -23 -87 2
-92 9 -2 34 13 56 32 22 20 44 36 49 36 5 0 14 -13 20 -30 15 -41 41 -38 88
10 21 22 42 40 45 40 3 0 4 -16 2 -35 -4 -37 11 -65 34 -65 17 0 110 88 102
96 -4 3 -20 -4 -36 -16 -17 -13 -38 -20 -46 -17 -33 13 -12 82 63 207 50 83
64 130 38 130 -7 0 -27 -24 -44 -52z"/>
<path d="M13703 4789 c-41 -71 -49 -80 -70 -74 -42 10 -134 -49 -163 -105 -10
-19 -32 -43 -49 -53 -28 -16 -32 -17 -37 -2 -4 9 6 32 22 56 16 22 33 46 38
53 12 18 1 46 -19 46 -8 0 -49 -32 -90 -71 -45 -43 -75 -65 -75 -56 0 9 14 32
30 50 35 40 38 57 11 57 -21 0 -62 -44 -87 -91 -8 -16 -23 -29 -33 -29 -17 0
-18 3 -5 41 12 33 12 47 2 75 -14 40 -45 45 -94 15 -32 -19 -84 -80 -84 -97 0
-13 -108 -119 -115 -113 -2 3 20 45 50 93 30 48 55 93 55 101 0 30 -19 22 -66
-27 -51 -52 -121 -108 -136 -108 -19 0 -6 35 25 64 64 60 81 106 40 106 -19 0
-88 -74 -103 -111 -12 -28 -54 -63 -94 -78 -24 -10 -66 9 -66 29 0 5 25 23 55
40 60 34 85 63 85 96 0 30 -24 37 -68 18 -93 -38 -147 -138 -112 -204 26 -49
90 -41 154 18 19 18 30 23 33 15 3 -7 13 -23 23 -35 l18 -23 46 33 c25 18 46
30 46 27 0 -4 -20 -44 -45 -90 -41 -74 -50 -115 -26 -115 4 0 47 47 94 105 84
101 107 121 107 91 0 -8 12 -24 27 -35 29 -23 55 -21 88 9 11 10 37 25 57 33
l37 15 6 -29 c4 -16 12 -29 19 -29 7 0 39 29 70 66 32 36 60 63 63 61 2 -3 -7
-28 -22 -57 -45 -89 -9 -120 64 -55 21 19 41 35 44 35 4 0 13 -13 22 -30 21
-40 40 -38 84 10 20 22 40 40 44 40 4 0 7 -20 7 -44 0 -71 33 -71 99 -2 38 40
35 63 -4 26 -31 -29 -55 -20 -55 19 0 37 11 63 77 175 29 50 53 98 53 108 0
40 -32 14 -77 -63z"/>
<path d="M14768 4853 c-8 -10 -30 -46 -48 -79 -32 -59 -35 -61 -71 -60 -47 1
-112 -42 -152 -102 -28 -42 -67 -60 -52 -24 25 57 11 132 -25 132 -32 0 -74
-25 -108 -65 -39 -44 -47 -74 -32 -120 15 -46 50 -62 88 -39 15 8 46 26 69 39
l42 24 20 -35 c11 -19 26 -34 34 -34 7 0 31 18 52 40 46 47 59 50 52 13 -6
-34 8 -73 26 -73 8 0 35 18 60 40 l46 41 16 -31 c20 -39 43 -38 85 5 19 19 37
35 42 35 4 0 6 -17 5 -37 -3 -53 28 -56 81 -9 22 20 42 36 46 36 4 0 11 -11
16 -25 15 -39 36 -40 80 -5 23 18 43 31 45 28 2 -2 -16 -37 -40 -78 -41 -69
-58 -130 -36 -130 6 0 44 43 86 95 42 52 81 97 86 100 5 4 14 16 21 28 11 21
10 21 -8 8 -10 -8 -36 -31 -56 -50 -21 -19 -40 -32 -43 -30 -2 3 20 44 50 92
30 48 55 93 55 101 0 31 -18 24 -66 -26 -82 -84 -144 -123 -144 -90 0 4 23 31
51 61 49 52 59 83 28 89 -20 4 -84 -61 -109 -109 -21 -40 -35 -54 -68 -63 -33
-11 -39 19 -14 68 12 22 23 57 24 76 3 35 3 35 -39 34 -48 -1 -139 -54 -170
-100 -31 -46 -80 -94 -96 -94 -44 0 -27 72 48 199 62 104 75 141 53 141 -8 0
-22 -8 -30 -17z"/>
<path d="M11518 4790 c-17 -17 -40 -30 -54 -30 -25 0 -74 -40 -74 -60 0 -5 11
-10 25 -10 14 0 25 -4 25 -9 0 -6 -29 -40 -63 -76 -54 -56 -68 -66 -93 -63
-42 5 -41 29 5 82 44 51 53 86 23 86 -24 0 -75 -51 -96 -95 -18 -37 -63 -78
-80 -72 -22 7 -16 36 13 70 31 34 40 70 22 82 -5 3 -40 -22 -78 -55 -37 -33
-71 -60 -75 -60 -4 0 7 22 24 50 31 50 32 80 3 80 -9 0 -50 -32 -92 -72 -79
-75 -115 -80 -49 -8 42 47 45 60 12 60 -22 0 -38 -17 -89 -101 -17 -29 -69
-54 -92 -45 -25 9 -17 44 19 84 40 44 49 75 23 80 -45 9 -113 -96 -104 -161
10 -73 52 -85 115 -32 35 29 42 31 42 10 0 -9 7 -18 15 -21 10 -4 36 16 77 61
34 37 64 63 65 58 2 -5 -8 -34 -21 -63 -43 -93 -15 -95 73 -5 35 36 66 63 68
61 2 -2 -8 -25 -22 -53 -44 -84 -12 -108 64 -48 24 19 45 35 46 35 2 0 12 -16
24 -35 28 -48 52 -45 115 15 l53 50 -10 -39 c-8 -30 -8 -43 2 -55 21 -25 45
-19 94 24 25 22 49 40 54 40 6 0 15 -11 21 -25 26 -56 88 -53 162 6 54 43 51
56 -5 23 -54 -31 -69 -25 -32 14 40 42 50 78 37 134 -13 52 -32 62 -51 26 -6
-13 -43 -56 -83 -96 -106 -109 -154 -128 -143 -54 9 51 52 112 80 112 29 0 62
51 45 68 -9 9 -9 15 0 24 15 15 16 38 1 38 -6 0 -24 -13 -41 -30z"/>
</g>
</svg>
