<?xml version="1.0" standalone="no"?>
<!DOCTYPE svg PUBLIC "-//W3C//DTD SVG 20010904//EN"
 "http://www.w3.org/TR/2001/REC-SVG-20010904/DTD/svg10.dtd">
<svg version="1.0" xmlns="http://www.w3.org/2000/svg"
 width="1920.000000pt" height="1080.000000pt" viewBox="0 0 1920.000000 1080.000000"
 preserveAspectRatio="xMidYMid meet">
<metadata>
Created by potrace 1.16, written by Peter Selinger 2001-2019
</metadata>
<g transform="translate(0.000000,1080.000000) scale(0.100000,-0.100000)"
fill="#000000" stroke="none">
<path d="M9600 6121 l-30 -29 0 -461 0 -460 26 -20 c34 -27 59 -26 88 2 22 22
23 32 30 242 8 242 13 264 70 303 96 65 198 43 237 -53 8 -20 12 -102 13 -247
1 -215 1 -217 25 -242 47 -50 113 -24 126 48 4 19 5 131 3 248 -3 196 -5 217
-26 263 -39 84 -100 134 -184 149 -67 12 -184 -30 -232 -83 -15 -16 -21 -18
-28 -9 -4 7 -8 83 -8 169 0 135 -2 160 -17 177 -31 36 -60 37 -93 3z"/>
<path d="M13364 6138 c-37 -17 -44 -51 -44 -203 0 -80 -2 -145 -4 -145 -3 0
-24 13 -48 29 -53 36 -106 51 -180 51 -207 0 -368 -209 -330 -430 34 -199 164
-320 345 -320 72 0 133 21 193 65 20 15 22 14 28 -8 14 -56 105 -57 126 -1 14
36 13 882 0 921 -9 23 -49 57 -63 52 -1 0 -12 -5 -23 -11z m-186 -418 c88 -40
135 -122 135 -235 0 -110 -38 -179 -118 -216 -101 -47 -224 5 -269 111 -50
122 -22 256 69 319 64 44 119 50 183 21z"/>
<path d="M10901 6073 c-18 -18 -49 -77 -84 -163 -31 -74 -92 -220 -135 -325
-44 -104 -99 -236 -122 -293 l-43 -103 20 -27 c25 -34 72 -41 96 -15 9 11 36
64 60 118 l45 100 197 3 c124 1 202 -1 210 -8 7 -5 27 -48 45 -95 39 -100 69
-135 116 -135 65 0 70 57 18 180 -19 47 -44 105 -54 131 -55 137 -196 475
-227 547 -27 61 -44 87 -64 98 -38 19 -44 18 -78 -13z m118 -401 c34 -85 59
-158 56 -163 -8 -12 -275 -12 -275 1 0 9 112 276 132 314 5 10 13 14 18 10 4
-5 35 -78 69 -162z"/>
<path d="M6795 6015 c-97 -61 -122 -81 -129 -105 -7 -25 -5 -36 11 -58 30 -40
67 -39 133 2 39 24 57 31 62 23 4 -7 8 -170 8 -363 0 -327 1 -352 18 -367 19
-17 78 -23 98 -9 32 21 34 53 34 474 0 320 -3 429 -13 448 -10 20 -21 25 -57
27 -40 3 -57 -5 -165 -72z"/>
<path d="M7446 6069 c-31 -24 -35 -68 -8 -92 15 -14 41 -17 145 -17 l127 0 0
-375 c0 -316 2 -381 15 -405 27 -52 75 -64 116 -31 l24 19 5 394 5 393 131 3
c115 2 134 5 149 22 24 27 22 70 -5 92 -20 17 -49 18 -350 18 -316 0 -328 -1
-354 -21z"/>
<path d="M8427 5856 c-119 -44 -200 -154 -228 -307 -21 -120 12 -228 99 -321
134 -144 356 -154 501 -23 42 38 49 61 31 96 -15 28 -58 24 -128 -12 -110 -57
-215 -49 -296 22 -42 38 -82 111 -71 130 4 5 109 9 249 9 l243 0 23 25 c20 21
22 31 17 81 -12 112 -85 219 -188 274 -53 28 -76 34 -139 37 -48 2 -89 -2
-113 -11z m178 -136 c63 -30 115 -85 115 -121 0 -18 -11 -19 -183 -19 -101 0
-186 3 -190 6 -10 10 19 56 61 97 60 59 127 71 197 37z"/>
<path d="M9165 5857 c-65 -22 -100 -44 -149 -93 -191 -191 -144 -512 92 -622
109 -52 294 -30 382 45 35 29 40 71 12 96 -25 23 -60 21 -113 -5 -35 -18 -61
-23 -126 -23 -76 0 -84 2 -120 31 -83 67 -112 142 -95 243 12 73 44 126 105
175 36 29 44 31 120 31 73 0 86 -3 122 -27 40 -28 60 -33 90 -22 42 17 36 98
-10 128 -70 46 -233 68 -310 43z"/>
<path d="M11616 5854 c-101 -32 -178 -104 -230 -214 -27 -58 -31 -75 -31 -155
1 -114 26 -183 95 -258 116 -127 291 -151 460 -64 60 31 78 63 59 103 -19 40
-57 42 -131 9 -51 -23 -71 -27 -129 -23 -89 5 -142 39 -182 118 -25 49 -28 63
-24 126 7 126 85 228 185 241 60 8 126 -5 167 -33 43 -29 76 -31 98 -6 23 25
21 64 -3 95 -47 60 -233 94 -334 61z"/>
<path d="M12234 5859 c-91 -26 -184 -124 -223 -234 -33 -91 -27 -215 12 -300
50 -108 145 -183 261 -207 67 -13 140 6 214 56 l50 33 13 -31 c18 -39 55 -59
83 -44 45 24 45 28 46 366 0 309 -1 323 -20 342 -11 11 -30 20 -43 20 -30 0
-67 -27 -67 -49 0 -31 -10 -30 -68 5 -31 19 -72 39 -92 44 -42 12 -124 12
-166 -1z m210 -152 c24 -13 52 -42 71 -71 26 -42 30 -61 33 -130 3 -73 1 -86
-25 -135 -17 -32 -45 -66 -71 -85 -40 -28 -51 -31 -117 -31 -67 0 -76 3 -112
31 -80 65 -112 183 -79 296 18 62 83 132 133 144 15 3 33 7 38 10 21 8 91 -8
129 -29z"/>
<path d="M13769 5856 c-113 -40 -186 -131 -224 -277 -46 -173 44 -360 208
-435 123 -56 279 -32 381 57 46 41 55 64 36 100 -15 28 -58 24 -127 -12 -101
-52 -196 -51 -275 1 -47 31 -104 119 -94 145 4 13 45 15 249 15 242 0 244 0
265 23 26 28 28 64 6 138 -33 112 -104 191 -212 235 -65 27 -155 31 -213 10z
m169 -132 c57 -24 122 -94 122 -134 0 -13 -366 -14 -374 -1 -8 12 43 84 77
111 52 41 115 49 175 24z"/>
<path d="M14579 5856 c-46 -12 -133 -58 -144 -76 -10 -17 -25 -11 -25 10 0 49
-79 79 -114 44 -14 -13 -16 -58 -16 -339 0 -321 0 -324 22 -345 25 -23 37 -25
72 -9 39 18 46 57 46 266 0 226 8 253 83 298 65 37 135 35 181 -6 20 -17 40
-47 46 -67 5 -20 10 -132 10 -248 0 -198 1 -212 20 -232 22 -23 59 -28 90 -12
33 18 40 66 40 275 l0 201 35 41 c78 91 195 98 251 16 17 -25 20 -54 24 -258
3 -160 9 -237 18 -252 14 -26 51 -38 86 -29 43 11 48 44 44 307 -3 231 -4 246
-26 291 -82 166 -278 184 -427 40 l-38 -37 -16 25 c-29 45 -75 80 -125 95 -58
18 -76 18 -137 1z"/>
<path d="M15484 5835 l-25 -25 3 -258 c3 -254 3 -258 29 -307 53 -104 167
-153 287 -122 34 9 79 28 100 42 42 29 47 23 37 -41 -17 -114 -126 -160 -280
-118 -103 28 -102 28 -130 0 -46 -46 -10 -102 90 -137 83 -29 218 -24 289 11
66 31 122 89 155 159 l26 56 3 356 3 355 -27 27 c-33 33 -45 34 -81 3 l-28
-24 -5 -209 c-5 -192 -7 -212 -28 -255 -32 -64 -71 -91 -143 -96 -54 -4 -59
-2 -97 32 -55 50 -62 90 -62 336 l0 199 -26 20 c-35 28 -59 26 -90 -4z"/>
<path d="M8725 4921 c-107 -17 -162 -39 -194 -78 -27 -33 -41 -73 -25 -73 28
0 97 26 104 40 13 24 92 44 173 45 56 0 71 -4 82 -19 29 -39 -24 -79 -123 -93
l-47 -6 28 36 c27 35 27 37 7 37 -11 0 -43 -20 -69 -45 -34 -32 -57 -45 -77
-45 -16 0 -36 -5 -44 -10 -13 -9 -12 -13 8 -29 l22 -20 -30 -47 c-35 -56 -38
-86 -11 -113 27 -27 76 -34 134 -21 97 21 167 72 167 120 0 37 -26 55 -105 73
-32 7 -60 18 -62 24 -2 6 23 16 61 22 129 22 200 72 194 134 -6 58 -83 85
-193 68z m-4 -271 c20 -6 43 -17 50 -26 30 -37 -97 -100 -158 -78 -36 12 -41
44 -12 84 25 33 55 38 120 20z"/>
<path d="M10634 4911 c-42 -25 -123 -119 -202 -232 -63 -91 -69 -97 -109 -104
-30 -4 -50 -15 -68 -36 -32 -39 -34 -64 -2 -54 57 18 134 16 221 -4 72 -17 92
-19 105 -9 20 16 40 41 41 50 0 3 -48 18 -106 32 -59 14 -108 27 -110 29 -11
11 198 277 217 277 6 0 -6 -30 -26 -67 -42 -76 -58 -120 -45 -128 12 -7 70 44
70 61 0 8 13 40 29 72 37 74 44 107 28 120 -10 8 -21 6 -43 -7z"/>
<path d="M12420 4924 c-109 -19 -173 -39 -196 -63 -32 -31 -57 -78 -46 -85 17
-10 96 16 117 38 38 41 229 59 251 25 23 -37 -37 -84 -122 -96 -50 -7 -55 3
-19 37 13 12 22 27 19 31 -7 13 -43 -8 -86 -49 -27 -25 -50 -37 -80 -41 -47
-7 -62 -31 -29 -47 20 -9 20 -10 -9 -53 -36 -53 -39 -100 -9 -127 49 -44 218
-8 274 58 30 35 32 59 7 81 -22 20 -96 47 -128 47 -14 0 -24 6 -24 14 0 10 22
18 68 26 83 14 169 60 183 98 13 35 4 68 -24 86 -24 16 -106 27 -147 20z m12
-285 c32 -17 19 -51 -32 -76 -54 -28 -100 -29 -130 -5 -20 16 -21 21 -10 43
28 54 41 62 99 55 29 -4 62 -11 73 -17z"/>
<path d="M14115 4923 c-58 -8 -132 -33 -147 -50 -18 -21 -37 -82 -31 -100 3
-7 21 -13 41 -13 33 0 34 1 17 14 -18 13 -16 15 25 26 25 6 61 15 80 21 55 14
183 12 177 -4 -3 -7 -35 -55 -71 -106 -75 -106 -130 -210 -124 -237 6 -33 35
-27 62 13 14 21 26 46 26 57 0 22 52 119 118 219 43 66 44 70 33 108 -8 27
-20 43 -37 49 -25 10 -109 11 -169 3z"/>
<path d="M10052 4832 c-15 -22 -36 -58 -47 -81 -16 -36 -22 -41 -42 -36 -12 3
-38 -1 -57 -9 -41 -17 -116 -83 -116 -102 0 -21 -69 -69 -81 -57 -12 12 0 42
37 86 25 30 31 61 13 72 -14 9 -77 -36 -130 -92 -50 -54 -66 -40 -20 17 37 46
39 63 9 58 -15 -2 -37 -24 -61 -60 -21 -32 -45 -58 -54 -58 -10 0 -13 6 -8 18
26 67 8 132 -36 132 -37 0 -102 -51 -126 -99 -19 -37 -123 -143 -123 -124 0 4
16 33 35 63 54 86 68 117 61 135 -5 14 -19 5 -72 -49 -36 -36 -78 -73 -94 -81
-50 -26 -45 2 9 60 53 55 62 81 35 92 -19 7 -76 -46 -110 -104 -48 -81 -154
-118 -154 -53 0 8 20 26 46 39 52 28 96 76 92 100 -6 29 -65 26 -110 -5 -51
-36 -76 -71 -84 -121 -16 -101 79 -132 155 -49 31 33 37 33 56 -4 20 -38 35
-38 80 1 42 37 56 32 27 -8 -31 -45 -72 -131 -72 -153 0 -29 22 -24 45 10 35
49 149 180 158 180 4 0 12 -11 17 -24 12 -34 42 -48 73 -37 14 6 28 15 32 21
7 11 25 20 72 34 19 6 25 2 33 -18 5 -14 15 -26 22 -26 7 0 35 27 61 60 26 33
52 60 58 60 6 0 9 -3 7 -7 -61 -118 -39 -170 40 -99 22 20 44 36 49 36 5 0 14
-13 20 -30 15 -41 41 -38 88 10 21 22 42 40 45 40 3 0 4 -16 2 -35 -4 -37 11
-65 34 -65 17 0 110 88 101 96 -3 3 -20 -4 -37 -16 -17 -12 -37 -19 -45 -16
-32 12 -9 84 67 211 45 76 60 125 38 125 -5 0 -22 -17 -38 -38z"/>
<path d="M13728 4832 c-14 -20 -35 -57 -47 -81 -19 -37 -26 -42 -47 -37 -42
11 -143 -53 -164 -104 -11 -26 -64 -70 -84 -70 -17 0 -2 42 30 84 19 26 34 54
32 64 -7 35 -38 22 -112 -49 -46 -43 -76 -65 -76 -56 0 9 14 32 30 50 35 40
38 57 11 57 -21 0 -62 -44 -87 -91 -8 -16 -23 -29 -33 -29 -18 0 -18 3 -4 42
13 38 13 46 -1 75 -18 39 -45 43 -92 14 -32 -19 -84 -80 -84 -97 0 -12 -102
-114 -114 -114 -9 0 34 76 76 134 28 39 36 70 20 80 -5 3 -31 -18 -58 -46 -51
-52 -121 -108 -136 -108 -21 0 -4 34 43 86 50 55 57 76 27 82 -19 4 -83 -60
-108 -108 -33 -63 -127 -106 -151 -69 -14 23 -11 26 46 59 60 35 85 63 85 97
0 19 -5 23 -31 23 -76 0 -159 -85 -159 -165 0 -41 40 -91 66 -81 9 3 21 6 28
6 7 0 32 17 56 37 27 23 45 33 48 25 2 -6 12 -22 22 -34 l18 -23 46 33 c25 18
46 31 46 28 0 -4 -20 -44 -45 -90 -41 -75 -50 -116 -26 -116 4 0 47 47 94 105
84 101 107 121 107 91 0 -8 12 -24 27 -35 29 -23 55 -21 88 9 11 10 37 25 57
33 l37 15 6 -29 c4 -16 12 -29 19 -29 7 0 36 27 65 60 29 33 57 60 62 60 5 0
-2 -23 -16 -51 -45 -88 -8 -119 64 -54 21 19 41 35 44 35 4 0 13 -13 22 -30
21 -40 41 -38 86 10 21 22 41 40 44 40 3 0 5 -17 5 -39 0 -73 34 -75 99 -7 39
41 37 57 -3 25 -34 -27 -56 -19 -56 21 0 35 15 69 83 186 26 45 47 88 47 97 0
29 -26 18 -52 -21z"/>
<path d="M14768 4853 c-8 -10 -30 -46 -49 -79 -32 -59 -35 -61 -71 -60 -46 1
-111 -43 -151 -102 -28 -42 -66 -60 -52 -24 24 62 11 132 -25 132 -60 0 -150
-90 -150 -150 0 -31 27 -78 47 -82 20 -5 65 9 73 21 3 5 24 18 48 29 l43 21
16 -35 c9 -19 24 -34 33 -34 9 0 34 18 55 40 45 46 60 50 51 16 -8 -32 9 -76
29 -76 8 0 35 18 60 41 l44 40 16 -30 c20 -40 43 -39 85 4 19 19 37 35 42 35
4 0 6 -17 5 -37 -3 -53 28 -56 81 -9 22 20 42 36 46 36 4 0 11 -11 16 -25 15
-39 36 -40 80 -5 23 18 43 31 45 28 2 -2 -16 -37 -40 -78 -42 -70 -58 -130
-35 -130 5 0 35 33 67 73 32 39 75 91 97 115 50 55 25 55 -31 0 -58 -57 -55
-31 7 62 45 67 63 120 42 120 -4 0 -30 -23 -57 -51 -83 -85 -145 -124 -145
-91 0 4 23 31 50 60 52 54 61 78 34 89 -20 7 -67 -37 -110 -104 -36 -55 -66
-78 -90 -69 -20 8 -17 33 7 72 11 18 19 42 17 51 -1 10 1 24 5 31 15 22 -4 34
-46 29 -44 -6 -139 -67 -165 -105 -29 -43 -79 -92 -95 -92 -44 0 -27 72 48
199 62 104 75 141 53 141 -8 0 -22 -8 -30 -17z"/>
<path d="M11518 4790 c-17 -17 -40 -30 -54 -30 -25 0 -74 -40 -74 -60 0 -5 11
-10 25 -10 14 0 25 -5 25 -11 0 -5 -29 -39 -64 -75 -53 -55 -68 -65 -92 -62
-42 5 -41 29 5 82 44 51 53 86 22 86 -22 0 -81 -63 -99 -106 -14 -32 -65 -69
-82 -59 -17 11 -11 33 20 68 30 34 39 70 20 82 -5 3 -31 -13 -57 -37 -27 -23
-61 -54 -77 -68 l-29 -25 32 58 c33 58 35 87 5 87 -9 0 -46 -29 -83 -65 -60
-57 -91 -78 -91 -59 0 3 16 24 35 47 42 48 43 57 10 57 -20 0 -32 -10 -53 -47
-39 -68 -80 -105 -111 -101 -40 5 -39 39 2 85 41 45 50 76 24 81 -24 5 -63
-32 -89 -82 -22 -44 -18 -115 7 -136 19 -16 56 -6 93 25 35 29 42 31 42 10 0
-9 7 -18 15 -21 10 -4 36 16 77 61 34 37 64 63 65 58 2 -5 -8 -34 -21 -63 -43
-93 -16 -95 73 -5 36 36 66 63 68 61 2 -2 -8 -25 -22 -53 -26 -50 -26 -83 2
-83 9 0 38 16 65 36 27 20 50 35 51 33 1 -2 9 -17 17 -34 24 -47 53 -44 107 9
25 25 47 46 49 46 3 0 2 -17 -2 -38 -4 -28 -2 -41 10 -51 20 -17 47 -7 97 35
47 39 55 41 64 14 8 -26 61 -53 89 -46 26 6 116 75 116 88 0 5 -20 -3 -45 -17
-51 -30 -80 -25 -39 7 42 34 56 78 43 138 -12 54 -31 65 -50 28 -6 -13 -43
-56 -83 -96 -105 -109 -154 -128 -143 -55 9 51 45 103 76 109 34 7 66 55 49
72 -9 9 -9 15 0 24 15 15 16 38 1 38 -6 0 -24 -13 -41 -30z"/>
</g>
</svg>
