<?xml version="1.0" standalone="no"?>
<!DOCTYPE svg PUBLIC "-//W3C//DTD SVG 20010904//EN"
 "http://www.w3.org/TR/2001/REC-SVG-20010904/DTD/svg10.dtd">
<svg version="1.0" xmlns="http://www.w3.org/2000/svg"
 width="1920.000000pt" height="1080.000000pt" viewBox="0 0 1920.000000 1080.000000"
 preserveAspectRatio="xMidYMid meet">
<metadata>
Created by potrace 1.16, written by Peter Selinger 2001-2019
</metadata>
<g transform="translate(0.000000,1080.000000) scale(0.100000,-0.100000)"
fill="#000000" stroke="none">
<path d="M9600 6121 l-30 -29 0 -461 0 -460 26 -20 c34 -27 59 -26 88 2 22 22
23 32 30 242 8 242 13 264 70 303 96 65 199 43 237 -53 7 -20 12 -105 13 -247
1 -214 1 -217 25 -242 47 -50 113 -24 126 48 4 19 5 131 3 248 -3 196 -5 217
-26 263 -38 84 -101 134 -185 150 -53 10 -162 -25 -214 -69 -33 -29 -42 -33
-47 -20 -3 9 -6 85 -6 169 0 131 -2 156 -17 173 -31 36 -60 37 -93 3z"/>
<path d="M13364 6138 c-37 -17 -44 -51 -44 -203 0 -80 -3 -145 -6 -145 -3 0
-21 12 -39 26 -74 56 -202 70 -300 33 -67 -25 -151 -103 -184 -172 -73 -151
-38 -348 84 -470 58 -59 132 -87 224 -87 80 0 121 12 176 52 28 20 41 25 44
16 7 -26 45 -58 67 -58 12 0 32 9 45 19 l24 19 0 467 0 467 -28 24 c-31 27
-33 27 -63 12z m-178 -423 c112 -57 161 -213 107 -345 -41 -100 -158 -147
-258 -101 -128 58 -177 255 -94 376 37 54 106 92 170 94 14 1 47 -10 75 -24z"/>
<path d="M10901 6073 c-18 -18 -49 -78 -86 -168 -32 -77 -77 -185 -100 -240
-23 -55 -77 -185 -120 -288 l-78 -188 20 -27 c25 -34 72 -41 96 -15 9 11 36
64 60 118 l45 100 199 3 c152 2 203 -1 211 -10 5 -7 27 -54 47 -105 39 -98 62
-123 114 -123 59 0 66 59 20 170 -17 41 -49 118 -71 170 -22 52 -59 142 -83
200 -137 338 -167 400 -196 415 -38 20 -44 19 -78 -12z m118 -401 c33 -84 61
-157 61 -162 0 -6 -57 -10 -140 -10 -84 0 -140 4 -140 10 0 9 112 276 132 314
5 10 13 14 18 10 4 -5 35 -78 69 -162z"/>
<path d="M6795 6015 c-97 -61 -122 -81 -129 -105 -7 -25 -5 -36 11 -58 29 -40
65 -39 133 1 47 29 60 32 64 20 3 -8 6 -171 6 -362 0 -324 1 -349 18 -364 30
-27 87 -22 111 9 21 26 21 37 21 453 0 322 -3 432 -13 451 -10 20 -21 25 -57
27 -40 3 -57 -5 -165 -72z"/>
<path d="M7446 6069 c-31 -24 -35 -68 -8 -92 15 -14 41 -17 145 -17 l127 0 0
-375 c0 -316 2 -381 15 -405 27 -52 75 -64 116 -31 l24 19 5 394 5 393 131 3
c115 2 134 5 149 22 24 27 22 70 -5 92 -20 17 -49 18 -350 18 -316 0 -328 -1
-354 -21z"/>
<path d="M8425 5853 c-126 -45 -211 -168 -230 -331 -18 -155 73 -312 218 -378
53 -24 74 -28 147 -28 70 0 95 5 141 26 67 31 139 93 139 120 0 65 -46 74
-138 27 -110 -57 -215 -49 -296 22 -42 38 -82 111 -71 130 4 5 109 9 249 9
l243 0 23 25 c20 21 22 31 17 81 -12 113 -98 234 -204 284 -66 31 -170 37
-238 13z m180 -133 c63 -30 115 -85 115 -121 0 -18 -11 -19 -183 -19 -101 0
-186 3 -190 6 -10 10 19 56 61 97 60 59 127 71 197 37z"/>
<path d="M9153 5852 c-104 -37 -170 -101 -225 -218 -27 -57 -31 -77 -31 -148
1 -276 247 -445 506 -346 105 40 147 100 99 143 -25 23 -60 21 -113 -5 -48
-23 -128 -34 -182 -24 -43 8 -112 66 -140 120 -27 51 -29 161 -4 218 22 53 93
125 134 139 56 18 153 6 199 -25 39 -26 59 -31 89 -20 42 17 36 98 -10 128
-77 51 -235 69 -322 38z"/>
<path d="M11616 5854 c-101 -32 -178 -104 -230 -214 -27 -58 -31 -75 -31 -155
1 -114 26 -183 95 -258 116 -127 303 -152 463 -63 58 32 74 63 56 102 -19 40
-57 42 -131 9 -51 -23 -71 -27 -129 -23 -89 5 -142 39 -182 118 -25 49 -28 63
-24 126 7 126 85 228 185 241 60 8 126 -5 167 -33 43 -29 76 -31 98 -6 23 25
21 64 -3 95 -47 60 -233 94 -334 61z"/>
<path d="M12229 5856 c-92 -33 -154 -92 -203 -196 -29 -60 -31 -73 -31 -170 0
-94 3 -111 28 -165 51 -108 145 -183 261 -207 67 -13 140 6 214 56 l50 33 13
-31 c18 -39 55 -59 83 -44 45 24 45 28 46 366 0 309 -1 323 -20 342 -11 11
-31 20 -44 20 -29 0 -66 -28 -70 -53 -3 -22 -11 -21 -61 9 -91 53 -189 68
-266 40z m221 -154 c134 -81 136 -322 3 -414 -106 -72 -236 -40 -294 74 -29
56 -35 151 -15 220 18 62 83 132 133 144 15 3 33 7 38 10 24 8 93 -9 135 -34z"/>
<path d="M13769 5856 c-113 -40 -186 -131 -224 -277 -46 -173 44 -360 208
-435 121 -55 280 -32 381 57 46 41 55 64 36 100 -16 28 -58 24 -129 -13 -140
-72 -287 -35 -347 88 -14 29 -23 58 -19 63 4 7 90 11 249 11 241 0 243 0 264
23 26 28 28 64 6 138 -33 112 -104 191 -212 235 -65 27 -155 31 -213 10z m169
-132 c57 -24 122 -94 122 -134 0 -13 -366 -14 -374 -1 -8 12 43 84 77 111 52
41 115 49 175 24z"/>
<path d="M14587 5859 c-45 -11 -90 -33 -135 -66 -18 -14 -34 -23 -36 -22 -1 2
-6 17 -12 34 -12 36 -51 53 -91 39 l-28 -9 -3 -320 c-1 -176 0 -329 2 -341 3
-11 17 -26 30 -34 35 -18 81 2 95 42 6 18 11 115 11 227 0 185 2 198 23 236
33 58 88 87 160 82 47 -3 63 -9 87 -32 17 -16 35 -45 40 -64 5 -20 10 -132 10
-248 0 -200 1 -214 20 -233 22 -22 60 -26 90 -10 33 18 40 66 40 275 l0 201
35 41 c78 91 195 98 251 16 17 -25 20 -54 24 -258 3 -160 9 -237 18 -252 14
-26 51 -38 86 -29 43 11 48 44 44 307 -3 231 -4 246 -26 291 -47 96 -127 144
-226 136 -66 -5 -148 -44 -200 -95 l-39 -38 -16 25 c-29 45 -75 80 -125 95
-55 17 -73 17 -129 4z"/>
<path d="M15484 5835 l-25 -25 3 -258 c3 -254 3 -258 29 -307 33 -65 93 -110
166 -126 49 -10 68 -9 123 5 36 9 81 28 100 41 40 29 45 23 35 -41 -17 -114
-126 -160 -280 -118 -103 28 -102 28 -130 0 -99 -99 178 -203 359 -135 70 26
139 92 174 167 l27 57 3 350 c2 251 0 356 -9 371 -15 29 -55 47 -78 35 -43
-24 -46 -36 -51 -250 -5 -189 -7 -210 -28 -253 -29 -58 -70 -89 -127 -96 -60
-6 -87 2 -123 39 -44 45 -52 98 -52 329 l0 199 -26 20 c-35 28 -59 26 -90 -4z"/>
<path d="M8679 4911 c-47 -10 -96 -24 -107 -30 -42 -22 -93 -111 -64 -111 26
0 89 25 102 40 20 23 67 38 143 46 82 8 119 -6 115 -44 -4 -33 -50 -59 -124
-69 l-49 -6 28 36 c27 35 27 37 7 37 -11 0 -43 -20 -69 -45 -34 -32 -57 -45
-77 -45 -16 0 -36 -5 -44 -10 -13 -9 -12 -13 8 -29 l22 -20 -30 -47 c-35 -56
-38 -86 -11 -113 39 -39 134 -35 222 10 56 28 79 54 79 89 0 37 -26 55 -103
73 -32 7 -58 17 -58 22 0 6 17 14 38 19 104 23 150 42 181 73 26 25 33 39 30
64 -7 69 -95 91 -239 60z m42 -261 c20 -6 43 -17 50 -26 30 -37 -97 -100 -158
-78 -36 12 -41 44 -12 84 25 33 55 38 120 20z"/>
<path d="M12420 4924 c-109 -19 -173 -39 -196 -63 -32 -31 -57 -78 -46 -85 16
-9 97 17 113 36 16 20 110 48 165 48 95 0 127 -53 54 -90 -45 -23 -130 -38
-130 -23 0 5 11 20 25 33 13 12 22 27 19 31 -7 13 -43 -8 -86 -49 -27 -25 -50
-37 -80 -41 -47 -7 -62 -31 -29 -47 20 -9 20 -10 -9 -53 -36 -53 -39 -100 -9
-127 50 -45 218 -9 274 58 30 35 32 59 7 81 -22 20 -96 47 -128 47 -14 0 -24
6 -24 14 0 9 22 18 67 26 122 21 204 85 189 146 -4 13 -16 30 -29 38 -24 16
-106 27 -147 20z m12 -285 c32 -17 19 -51 -32 -76 -54 -28 -100 -29 -130 -5
-20 16 -21 21 -10 43 28 54 41 62 99 55 29 -4 62 -11 73 -17z"/>
<path d="M14115 4923 c-58 -8 -132 -33 -147 -50 -18 -21 -37 -82 -31 -100 3
-7 21 -13 41 -13 33 0 34 1 17 14 -18 13 -16 15 25 26 25 6 61 15 80 21 42 11
180 12 180 2 0 -5 -29 -48 -65 -98 -75 -105 -139 -224 -133 -251 6 -33 35 -27
62 13 14 21 26 46 26 57 0 22 52 119 118 219 43 66 44 70 33 108 -8 27 -20 43
-37 49 -25 10 -109 11 -169 3z"/>
<path d="M10571 4853 c-36 -38 -97 -114 -136 -170 -66 -96 -72 -101 -112 -108
-30 -4 -50 -15 -68 -36 -32 -39 -34 -64 -2 -54 55 17 126 16 216 -4 76 -17 97
-18 110 -8 20 15 40 40 41 49 0 3 -48 18 -106 32 -59 14 -108 27 -110 29 -11
11 198 277 217 277 6 0 -6 -30 -26 -67 -42 -76 -58 -120 -45 -128 11 -7 70 43
70 61 0 7 13 39 29 71 16 32 31 72 33 88 2 25 -1 31 -21 33 -19 3 -38 -11 -90
-65z"/>
<path d="M10052 4832 c-15 -22 -36 -58 -47 -81 -16 -36 -22 -41 -42 -36 -12 3
-38 -1 -57 -9 -41 -17 -116 -83 -116 -102 0 -21 -69 -69 -81 -57 -12 12 0 42
37 86 25 30 31 61 13 72 -14 9 -77 -36 -130 -92 -50 -54 -66 -40 -20 17 37 46
39 63 9 58 -15 -2 -37 -24 -61 -60 -21 -32 -45 -58 -54 -58 -10 0 -13 6 -8 18
26 67 8 132 -36 132 -37 0 -102 -51 -126 -99 -19 -37 -123 -143 -123 -124 0 4
16 33 35 63 54 86 68 117 61 135 -5 14 -19 5 -72 -49 -36 -36 -78 -73 -94 -81
-50 -26 -45 2 9 60 53 55 62 81 35 92 -19 7 -76 -46 -111 -104 -29 -50 -82
-86 -120 -81 -48 5 -42 39 12 67 48 26 95 73 95 96 0 22 -32 33 -67 23 -17 -4
-52 -28 -76 -52 -36 -35 -47 -53 -52 -89 -16 -103 69 -136 150 -57 17 16 34
30 38 30 3 0 13 -13 22 -30 20 -38 35 -38 80 1 42 37 56 32 27 -8 -31 -45 -72
-131 -72 -153 0 -29 22 -24 45 10 35 49 149 180 158 180 4 0 12 -11 17 -25 5
-14 21 -30 34 -37 21 -9 30 -7 52 8 38 27 45 31 81 47 31 15 32 14 42 -14 5
-16 16 -29 23 -29 7 0 35 27 61 60 26 33 52 60 57 60 13 0 13 0 -11 -49 -40
-84 -7 -116 59 -57 22 20 44 36 49 36 5 0 14 -13 20 -30 15 -41 41 -38 88 10
21 22 42 40 45 40 3 0 4 -17 2 -38 -7 -75 41 -80 103 -11 42 47 40 61 -5 29
-17 -12 -37 -19 -45 -16 -32 12 -9 84 67 211 45 76 60 125 38 125 -5 0 -22
-17 -38 -38z"/>
<path d="M13728 4832 c-14 -20 -35 -57 -47 -81 -19 -37 -26 -42 -47 -37 -44
11 -135 -49 -167 -110 -8 -16 -29 -37 -46 -47 -28 -16 -32 -17 -37 -2 -4 9 6
32 22 56 16 22 33 46 38 53 12 18 1 46 -19 46 -8 0 -49 -32 -90 -71 -45 -43
-75 -65 -75 -56 0 9 14 32 30 50 35 40 38 57 11 57 -21 0 -62 -44 -87 -91 -8
-16 -23 -29 -33 -29 -17 0 -18 3 -5 41 12 33 12 47 2 75 -14 40 -45 45 -94 15
-32 -19 -84 -80 -84 -97 0 -11 -102 -114 -113 -114 -10 0 6 29 59 112 43 66
52 92 36 102 -5 3 -31 -18 -58 -46 -51 -52 -121 -108 -136 -108 -20 0 -5 41
26 68 63 55 81 102 39 102 -19 0 -78 -63 -103 -110 -41 -77 -160 -111 -160
-45 0 2 25 18 55 35 60 35 85 63 85 97 0 19 -5 23 -31 23 -98 0 -191 -132
-149 -210 26 -49 90 -41 154 18 19 18 30 23 33 15 3 -7 13 -23 23 -35 l18 -23
46 33 c25 18 46 31 46 28 0 -4 -20 -44 -45 -90 -41 -75 -50 -116 -26 -116 4 0
47 47 94 105 84 101 107 121 107 91 0 -8 12 -24 27 -35 29 -23 55 -21 88 9 11
10 37 25 57 33 l37 15 6 -29 c4 -16 12 -29 19 -29 7 0 36 27 65 60 29 33 57
60 62 60 5 0 -2 -23 -16 -51 -45 -88 -8 -119 64 -54 21 19 41 35 44 35 4 0 13
-13 22 -30 21 -40 41 -38 85 10 20 22 40 40 43 40 4 0 7 -20 7 -44 0 -71 33
-71 99 -2 39 41 37 57 -3 25 -34 -26 -56 -19 -56 20 0 37 11 63 77 175 29 50
53 98 53 108 0 30 -26 20 -52 -20z"/>
<path d="M14768 4853 c-8 -10 -30 -46 -49 -79 -32 -59 -35 -61 -71 -60 -46 1
-111 -43 -151 -102 -28 -42 -66 -60 -52 -24 24 62 11 132 -25 132 -48 0 -133
-72 -146 -125 -9 -35 14 -95 40 -104 21 -8 66 3 76 18 3 5 24 17 47 29 l42 20
20 -34 c11 -19 26 -34 34 -34 7 0 31 18 52 40 46 48 59 50 50 11 -7 -34 9 -71
31 -71 8 0 34 18 59 41 l44 40 16 -30 c20 -40 43 -39 85 4 19 19 37 35 42 35
4 0 6 -17 5 -37 -3 -53 28 -56 81 -9 22 20 42 36 46 36 4 0 11 -11 16 -25 15
-39 36 -40 80 -5 23 18 43 31 45 28 2 -2 -16 -37 -40 -78 -42 -70 -58 -130
-35 -130 5 0 35 33 67 73 32 39 75 91 97 115 54 59 38 64 -23 7 -28 -27 -54
-46 -56 -43 -3 3 19 43 50 89 49 75 69 129 47 129 -4 0 -30 -23 -57 -51 -83
-85 -145 -124 -145 -91 0 4 23 31 50 60 52 54 61 78 34 89 -20 7 -67 -37 -110
-104 -36 -55 -66 -78 -90 -69 -20 8 -17 33 7 72 11 18 19 42 17 51 -1 10 1 24
5 31 22 35 -34 42 -98 13 -37 -17 -84 -59 -162 -146 -34 -38 -57 -44 -67 -19
-11 28 11 85 69 183 31 52 57 103 58 114 3 27 -16 32 -35 10z"/>
<path d="M11518 4790 c-17 -17 -40 -30 -54 -30 -25 0 -74 -40 -74 -60 0 -5 11
-10 25 -10 14 0 25 -5 25 -11 0 -5 -29 -39 -64 -75 -53 -55 -68 -65 -92 -62
-42 5 -41 29 5 82 44 51 53 86 22 86 -20 0 -76 -58 -103 -107 -18 -36 -62 -68
-78 -58 -17 11 -11 33 20 68 30 34 39 70 20 82 -5 3 -31 -13 -57 -37 -27 -23
-61 -54 -77 -68 l-29 -25 32 58 c33 58 35 87 6 87 -9 0 -50 -32 -92 -72 -80
-76 -112 -80 -49 -6 43 50 45 60 9 56 -22 -2 -36 -16 -63 -62 -37 -61 -83 -94
-114 -83 -26 10 -18 44 18 85 40 44 49 75 23 80 -45 9 -113 -96 -104 -161 10
-73 52 -85 115 -32 36 30 38 30 45 5 7 -26 32 -26 50 0 29 42 101 113 104 103
2 -5 -8 -34 -21 -63 -42 -91 -16 -95 68 -10 33 33 63 60 67 60 5 0 -3 -22 -17
-48 -25 -48 -24 -82 1 -82 7 0 36 16 65 36 28 19 53 34 53 32 41 -83 61 -87
124 -24 25 25 47 46 49 46 3 0 2 -17 -1 -37 -11 -75 29 -81 105 -18 23 19 45
35 49 35 4 0 13 -11 19 -25 13 -29 56 -49 87 -41 25 6 115 75 115 88 0 5 -20
-3 -45 -17 -51 -30 -80 -25 -39 7 39 31 54 74 44 128 -5 25 -9 48 -10 53 -1
16 -30 5 -41 -15 -17 -33 -149 -167 -183 -185 -37 -19 -51 -6 -42 40 9 50 47
101 77 105 32 4 64 53 47 70 -9 9 -9 15 0 24 15 15 16 38 1 38 -6 0 -24 -13
-41 -30z"/>
</g>
</svg>
