<svg version="1.1" id="Layer_1" xmlns="http://www.w3.org/2000/svg" xmlns:xlink="http://www.w3.org/1999/xlink" x="0px" y="0px"
	 width="100%" viewBox="0 0 1024 1024" enable-background="new 0 0 1024 1024" xml:space="preserve">
<path fill="#000000" opacity="1.000000" stroke="none" 
	d="
M575.000000,1025.000000 
	C383.333344,1025.000000 192.166672,1025.000000 1.000000,1025.000000 
	C1.000000,683.666687 1.000000,342.333344 1.000000,1.000000 
	C342.333344,1.000000 683.666687,1.000000 1025.000000,1.000000 
	C1025.000000,342.333344 1025.000000,683.666687 1025.000000,1025.000000 
	C875.166687,1025.000000 725.333313,1025.000000 575.000000,1025.000000 
M145.358963,709.197144 
	C144.874420,710.119263 144.389862,711.041443 143.377457,712.249451 
	C143.218277,712.821472 143.059113,713.393433 142.367279,714.242737 
	C142.208740,714.814087 142.050201,715.385376 141.288208,716.359192 
	C139.591248,724.252319 137.894287,732.145386 136.089630,740.965088 
	C136.401443,748.058044 136.372406,755.186218 137.101791,762.235962 
	C138.316544,773.976807 143.288177,784.282166 151.382187,792.729614 
	C160.479965,802.224670 171.767929,807.562988 185.020416,809.185242 
	C200.003021,811.019104 214.572891,810.538757 228.113876,803.287170 
	C234.022293,800.122986 239.330902,795.838806 245.244095,791.838562 
	C245.244095,796.793518 245.244095,801.713806 245.244095,806.727173 
	C256.602814,806.727173 267.511475,806.727173 279.000549,806.727173 
	C279.000549,786.313354 279.000549,766.166626 279.000549,745.341187 
	C280.144928,746.581665 280.787018,747.091492 281.194946,747.747009 
	C292.651764,766.159363 304.025635,784.623962 315.616150,802.951538 
	C316.739197,804.727417 319.142090,806.756531 321.013031,806.819397 
	C330.987488,807.154724 340.981689,806.901489 351.832825,806.919739 
	C352.231995,805.306763 352.962952,803.696716 352.977081,802.080383 
	C353.077209,790.624084 353.052673,779.166443 353.026093,767.709290 
	C352.965179,741.477783 352.880432,715.246338 352.920715,688.160889 
	C352.268677,687.456299 351.623749,686.145264 350.963562,686.137512 
	C340.087891,686.010193 329.210297,686.047058 318.182953,686.047058 
	C318.182953,687.727600 318.182953,688.870056 318.049469,690.939941 
	C318.049469,710.569885 318.049469,730.199829 318.049469,749.829834 
	C305.096985,729.935486 293.264008,709.896057 281.312103,689.927795 
	C280.391144,688.389221 278.663788,686.291504 277.258759,686.250488 
	C266.665192,685.940918 256.058411,686.081604 245.180786,686.081604 
	C245.180786,688.780334 245.180786,690.908264 245.076553,693.933044 
	C245.023468,696.944946 244.970398,699.956848 244.385818,702.829285 
	C243.938995,702.521362 243.492172,702.213440 242.758240,701.305542 
	C237.806763,697.537476 233.309265,692.834717 227.822037,690.169800 
	C208.300110,680.689087 188.176788,680.771851 168.299713,689.069031 
	C158.760696,693.050903 150.694763,699.296753 145.978287,708.974060 
	C145.978287,708.974060 145.952057,708.927734 145.358963,709.197144 
M822.501587,732.046021 
	C822.501587,732.046021 822.025574,731.949097 821.954102,731.311279 
	C821.908752,730.886536 821.863403,730.461731 821.987366,729.108398 
	C821.931519,716.074951 821.875610,703.041504 821.944214,689.155762 
	C821.271912,688.122314 820.615784,686.201111 819.924927,686.188599 
	C809.393921,685.997314 798.858398,686.055481 788.168518,686.055481 
	C788.168518,687.723938 788.168518,688.866211 788.036133,690.761230 
	C788.083801,691.519592 788.131470,692.277893 788.076416,693.963928 
	C788.066589,703.527954 788.096924,713.092407 787.993591,722.655457 
	C787.981323,723.787781 787.237854,724.912231 786.992981,725.246338 
	C785.244690,719.985107 784.187805,714.355774 781.619385,709.531128 
	C773.680603,694.618774 761.190063,686.134460 744.207397,683.864441 
	C721.001282,680.762634 700.207092,684.242615 684.783630,703.794434 
	C678.044067,712.338074 674.168335,722.150635 673.091309,733.689636 
	C673.029724,734.118713 672.968140,734.547791 672.264343,735.360229 
	C672.240723,736.588684 672.217102,737.817139 672.094849,739.971863 
	C672.743652,748.756653 672.631958,757.685730 674.263123,766.284119 
	C675.781006,774.285522 678.398193,782.313965 685.012817,788.804810 
	C690.604736,793.521790 695.636780,799.236328 701.902283,802.753296 
	C716.033997,810.685730 731.567627,811.157471 747.124939,807.927917 
	C769.281860,803.328247 783.123840,787.475281 787.521057,765.051270 
	C787.521057,765.051270 787.936096,765.119873 787.998474,766.040222 
	C787.998474,779.608887 787.998474,793.177551 787.998474,806.683411 
	C799.722412,806.683411 810.631653,806.683411 822.125488,806.683411 
	C822.125488,790.999329 822.125488,775.628845 822.125488,760.413940 
	C834.095825,760.413940 845.470703,760.413940 857.239014,760.413940 
	C857.239014,776.071838 857.239014,791.322510 857.239014,806.829956 
	C868.422119,806.829956 879.201355,806.829956 890.499084,806.875000 
	C890.603638,806.579834 890.708191,806.284668 890.915588,805.058533 
	C890.880737,767.718567 890.845825,730.378540 890.972229,692.159424 
	C890.972229,690.239929 890.972229,688.320374 890.972229,686.350708 
	C879.301514,686.350708 868.381775,686.350708 857.177734,686.350708 
	C857.177734,688.781250 857.177734,690.908936 857.071594,693.963928 
	C857.018494,706.633850 856.965332,719.303711 856.452576,732.026062 
	C856.452576,732.026062 856.009644,732.159729 855.077393,732.044617 
	C844.372986,732.094482 833.668640,732.144348 822.501587,732.046021 
M423.700531,846.932800 
	C424.022675,846.362854 424.720337,845.706116 424.611633,845.235657 
	C422.271027,835.107117 416.397919,828.754089 405.898468,826.350769 
	C390.009888,822.713867 373.991058,834.927551 374.084686,851.958374 
	C374.071045,853.622253 374.117096,855.289124 374.034454,856.949524 
	C373.235352,873.011169 384.200256,886.396973 402.315155,885.125549 
	C412.153992,884.435059 419.568115,879.677795 423.717529,869.691528 
	C424.176453,867.665405 424.635376,865.639343 425.225250,863.034973 
	C422.820923,863.034973 421.021210,863.034973 419.221527,863.034973 
	C417.265442,863.034973 415.309357,863.034973 413.473358,863.034973 
	C411.772766,870.775574 408.486084,874.386414 402.929840,875.020569 
	C395.240936,875.898132 390.648163,873.499084 387.349640,866.727661 
	C386.450226,864.881287 385.850739,862.888794 384.985321,860.058228 
	C385.333984,855.833496 385.100098,851.454163 386.170746,847.421082 
	C387.698273,841.666809 391.273651,837.175598 397.626801,836.070129 
	C403.743805,835.005676 408.952484,837.296692 411.426758,842.027283 
	C412.379089,843.848022 412.862518,845.914062 413.425507,847.492310 
	C416.809296,847.257629 419.884888,847.044312 423.700531,846.932800 
M554.078613,833.971252 
	C554.078613,850.497131 554.078613,867.022949 554.078613,883.753174 
	C567.324219,883.753174 580.019714,883.753174 592.825989,883.753174 
	C592.825989,882.342529 592.825989,881.191284 592.978943,879.171265 
	C592.883545,877.582703 592.788208,875.994141 592.662598,873.902527 
	C583.214172,873.902527 574.132385,873.902527 564.978210,872.986023 
	C564.978210,868.753967 564.978210,864.521973 564.978210,859.856140 
	C573.794312,859.856140 581.883362,859.856140 590.820801,859.925842 
	C591.316101,857.138977 591.811401,854.352112 592.413025,850.966614 
	C582.528687,850.966614 573.808472,850.966614 564.984436,850.044678 
	C564.984436,845.811768 564.984436,841.578796 564.984436,836.912781 
	C574.325623,836.912781 583.018799,836.912781 591.802246,836.912781 
	C591.802246,834.986877 591.802246,833.517761 591.959839,831.185303 
	C591.283203,829.808533 590.631287,827.246155 589.926270,827.231445 
	C578.078247,826.984314 566.223633,827.054932 554.184265,827.054932 
	C554.184265,829.462341 554.184265,831.253601 554.078613,833.971252 
M541.987915,854.311951 
	C541.684021,853.199951 541.380127,852.087952 540.960266,850.334534 
	C540.909424,849.903503 540.858582,849.472412 540.968384,848.264954 
	C539.207581,838.323181 533.742859,830.782043 523.919922,828.788940 
	C514.354004,826.848022 504.335724,827.136353 494.188049,826.422852 
	C494.188049,829.787964 494.188049,831.914490 494.084412,834.968018 
	C494.117096,850.971497 494.149780,866.975037 494.127563,883.497009 
	C494.422424,883.608643 494.717316,883.720276 495.941223,883.952148 
	C502.584412,883.971741 509.238647,884.226379 515.866333,883.915405 
	C519.376831,883.750610 523.019287,883.068115 526.294800,881.815674 
	C538.566040,877.123413 541.537598,866.809692 541.987915,854.311951 
M615.912109,883.970459 
	C618.834351,883.970459 621.756531,883.970459 625.029907,883.970459 
	C625.029907,872.538574 625.029907,861.833069 625.029907,851.127563 
	C629.410278,860.677185 633.170471,870.318970 636.457092,880.119568 
	C637.509949,883.259094 638.966797,884.237183 642.082581,884.073425 
	C645.383057,883.899963 648.697510,884.591614 649.983643,880.132751 
	C651.424866,875.136047 653.247070,870.243652 655.034973,865.353943 
	C657.035217,859.883728 659.182983,854.467468 661.266541,849.027710 
	C661.588989,849.106873 661.911438,849.185974 662.233887,849.265076 
	C662.233887,860.696045 662.233887,872.126953 662.233887,883.594727 
	C665.985596,883.594727 669.348999,883.594727 673.111572,883.594727 
	C673.111572,869.487976 673.111572,855.790039 673.111572,842.122437 
	C683.704773,854.151855 687.386780,868.110474 684.615112,883.739868 
	C688.971497,883.739868 692.224792,883.739868 695.979248,883.739868 
	C695.979248,877.366821 695.909241,871.248230 696.027710,865.133240 
	C696.057922,863.574890 696.351807,861.842529 697.093689,860.506042 
	C702.000793,851.665161 707.063171,842.910461 712.682312,833.773438 
	C713.592102,831.699524 714.501831,829.625549 715.632874,827.047058 
	C713.237549,827.047058 711.410339,827.252991 709.646301,827.006775 
	C705.132202,826.376770 702.629089,827.953369 700.691711,832.377014 
	C698.023193,838.470154 694.190918,844.053650 690.745300,850.050232 
	C688.644165,846.337280 686.182312,843.247498 685.036743,839.729126 
	C681.403687,828.571045 673.885010,825.240173 662.793274,826.869385 
	C659.339355,827.376770 657.788696,828.104370 656.643494,831.531311 
	C652.532654,843.832520 647.959412,855.979126 643.339233,868.799500 
	C642.389343,866.598938 641.595520,864.993408 640.990234,863.319641 
	C637.033447,852.378845 633.184570,841.398254 629.103943,830.504211 
	C628.591492,829.135986 627.025940,827.363342 625.780518,827.218384 
	C622.044373,826.783325 618.225220,827.061768 614.191101,827.061768 
	C614.191101,829.441833 614.191101,831.239075 614.074707,833.962585 
	C614.105347,850.302979 614.135986,866.643311 614.115479,883.506226 
	C614.412598,883.621460 614.709717,883.736694 615.912109,883.970459 
M389.964111,779.046021 
	C389.964111,772.794861 389.964111,766.543762 389.964111,760.005005 
	C399.295868,760.005005 407.919586,760.027100 416.543152,759.998901 
	C425.353210,759.970154 434.163147,759.892090 443.498199,759.877563 
	C443.603485,759.578674 443.708771,759.279724 443.907104,758.050598 
	C443.873413,751.716919 443.839752,745.383240 443.968506,738.180847 
	C443.878906,736.588440 443.789307,734.996094 443.675507,732.973572 
	C425.554596,732.973572 407.816010,732.973572 389.964111,732.046021 
	C389.964111,725.794434 389.964111,719.542847 389.964111,712.835144 
	C408.774811,712.835144 426.874664,712.835144 445.498749,712.877747 
	C445.604034,712.579346 445.709351,712.280945 445.909790,711.052490 
	C445.876770,705.050293 445.843781,699.048096 445.980133,692.165833 
	C445.980133,690.249756 445.980133,688.333740 445.980133,686.344421 
	C415.642059,686.344421 386.020691,686.344421 356.183105,686.344421 
	C356.183105,688.454590 356.183105,690.249634 356.078979,692.971252 
	C356.106873,730.639221 356.134766,768.307129 356.108917,806.505920 
	C356.410889,806.622803 356.712860,806.739685 357.944580,806.966492 
	C387.474976,806.966492 417.005371,806.966492 446.819305,806.966492 
	C446.819305,799.602051 446.819305,792.823975 446.979218,785.176819 
	C446.885834,783.584167 446.792450,781.991577 446.674133,779.973633 
	C427.555603,779.973633 408.816345,779.973633 389.964111,779.046021 
M664.504211,712.888611 
	C664.613586,712.585632 664.722961,712.282654 664.921631,711.049194 
	C664.887878,704.715515 664.854126,698.381897 664.984558,691.165955 
	C664.984558,689.245972 664.984558,687.325928 664.984558,685.338257 
	C600.311401,685.338257 536.356018,685.338257 472.190674,685.338257 
	C472.190674,687.454224 472.190674,689.252625 472.084778,691.976379 
	C472.084778,698.897400 472.084778,705.818481 472.084778,713.138306 
	C484.061768,713.138306 495.322479,713.138306 507.164673,713.138306 
	C507.164673,744.593323 507.164673,775.632446 507.164673,806.706787 
	C518.674561,806.706787 529.588989,806.706787 541.090088,806.706787 
	C541.090088,775.377563 541.090088,744.338867 541.090088,713.405151 
	C552.733704,713.405151 563.782104,713.405151 575.229126,713.405151 
	C575.229126,744.724915 575.229126,775.643860 575.229126,806.857849 
	C605.416748,806.857849 635.195068,806.857849 665.508118,806.893555 
	C665.618164,806.589172 665.728210,806.284851 665.926636,805.049622 
	C665.889648,798.382874 665.852661,791.716125 665.975403,784.180359 
	C665.883667,782.588074 665.791870,780.995789 665.675293,778.972473 
	C646.554565,778.972473 627.818420,778.972473 608.968445,778.045227 
	C608.968445,772.127136 608.968445,766.209106 608.968445,759.834106 
	C627.106750,759.834106 644.539917,759.834106 662.499329,759.879883 
	C662.605835,759.580322 662.712341,759.280701 662.911926,758.050842 
	C662.877930,751.716431 662.843933,745.382080 662.978333,738.167297 
	C662.978333,736.251160 662.978333,734.334961 662.978333,731.973755 
	C644.536072,731.973755 626.806274,731.973755 608.967407,731.045837 
	C608.967407,725.127441 608.967407,719.209045 608.967407,712.844971 
	C627.773804,712.844971 645.872864,712.844971 664.504211,712.888611 
M855.723206,332.611023 
	C855.836609,326.346252 853.248596,321.323761 848.009155,318.101562 
	C840.594360,313.541626 832.953918,309.340179 825.328979,305.132263 
	C808.779419,295.999146 792.149658,287.011261 775.605469,277.868408 
	C751.580566,264.591461 727.605957,251.223358 703.602539,237.907471 
	C690.952148,230.889664 678.273193,223.923401 665.629883,216.892929 
	C642.214417,203.872437 618.802246,190.845871 595.415222,177.774445 
	C582.216919,170.397705 569.031982,162.995438 555.912415,155.479904 
	C540.772339,146.806854 525.511658,138.218689 507.143066,141.161774 
	C499.477783,142.389954 491.516327,144.056549 484.639984,147.449860 
	C469.920197,154.713745 455.834045,163.258423 441.460663,171.228485 
	C428.088562,178.643311 414.656158,185.949493 401.293701,193.381470 
	C378.745758,205.922211 356.249542,218.555908 333.698181,231.090439 
	C317.317230,240.195343 300.863373,249.169144 284.476166,258.262848 
	C261.195435,271.181854 237.944260,284.154175 214.683945,297.109985 
	C202.765274,303.748596 190.669632,310.097229 179.019958,317.178955 
	C173.463882,320.556396 168.860245,325.392609 170.114075,333.765472 
	C172.195053,339.665497 176.292282,343.556854 181.800079,346.440918 
	C191.491837,351.515808 201.009552,356.924683 210.574432,362.240021 
	C233.841599,375.169891 257.104797,388.106934 280.346344,401.082855 
	C288.186005,405.459747 295.955566,409.962219 304.173706,414.644623 
	C295.833282,419.825348 292.830811,426.815399 292.966705,435.878326 
	C293.266479,455.871552 293.130615,475.873108 292.935364,495.868958 
	C292.917084,497.740387 291.521454,499.853607 290.226715,501.405090 
	C287.366425,504.832489 283.838318,507.728821 281.163116,511.279205 
	C274.556763,520.046814 274.014313,530.307678 273.947052,540.869873 
	C273.849640,556.166260 279.574310,568.143372 291.972534,577.060547 
	C292.937286,577.754517 293.852539,579.416992 293.759857,580.544556 
	C292.642456,594.142395 291.317261,607.723145 290.074585,621.310913 
	C289.354736,629.182007 289.717560,637.321411 287.786285,644.878296 
	C283.353485,662.223572 297.775299,679.099915 315.262634,678.308533 
	C327.877594,677.737610 340.454620,665.685303 339.848846,653.335144 
	C339.292908,642.000916 337.887238,630.710388 336.984711,619.390442 
	C336.198120,609.524109 336.358215,599.508911 334.658539,589.812195 
	C333.333954,582.255737 333.423065,576.370483 340.981262,572.615845 
	C341.221344,572.496582 341.512299,572.479675 342.047394,572.350342 
	C344.529114,574.889404 346.877350,577.765442 349.683868,580.087524 
	C369.793243,596.725830 392.429169,608.810364 417.144135,617.068115 
	C435.430420,623.177917 454.084198,627.526672 473.231964,630.148132 
	C490.861542,632.561584 508.475830,633.157104 526.228455,633.125427 
	C548.046753,633.086548 569.473450,630.541260 590.787292,626.077271 
	C612.430359,621.544373 633.332764,614.751465 653.009094,604.835693 
	C672.685059,594.920044 690.945496,582.787964 705.156921,565.397034 
	C718.158081,549.487061 726.925781,531.978760 726.940674,510.934448 
	C726.961609,481.271149 727.256287,451.602417 726.740295,421.948120 
	C726.602417,414.020386 728.206543,408.868469 736.139832,406.268585 
	C739.802002,405.068481 743.092590,402.708405 746.516174,400.810364 
	C767.498047,389.177856 788.472717,377.532349 809.443665,365.880219 
	C821.571777,359.141449 833.751404,352.491577 845.779358,345.578125 
	C850.579041,342.819336 854.491882,339.060547 855.723206,332.611023 
M436.164948,866.637451 
	C434.191925,872.278015 432.218933,877.918579 430.144989,883.847717 
	C434.221375,883.847717 437.857056,883.847717 441.455261,883.847717 
	C442.655243,880.852051 444.210175,878.078247 444.836304,875.108582 
	C445.520782,871.862183 446.969635,870.771484 450.197357,870.965881 
	C454.344391,871.215576 458.550812,871.351501 462.670624,870.934082 
	C466.745392,870.521179 468.382660,872.056213 469.531158,875.880432 
	C472.087738,884.393494 472.321899,884.328247 481.314148,883.954590 
	C482.082123,883.922729 482.844818,883.763123 483.841583,883.632507 
	C476.983307,864.614197 470.240387,845.915771 463.513733,827.262451 
	C459.000977,827.262451 454.860931,827.262451 450.434967,827.262451 
	C445.819305,840.190308 441.215424,853.085144 436.164948,866.637451 
M362.921448,875.470642 
	C358.430206,863.009827 353.861389,850.576355 349.470398,838.080322 
	C345.390503,826.469727 345.473938,826.439758 333.154877,827.246643 
	C332.998383,827.256897 332.848785,827.371887 332.485779,827.528992 
	C325.797791,846.078857 319.056885,864.775574 312.268738,883.603271 
	C323.556458,884.785828 323.955994,884.886841 325.922577,877.110107 
	C327.332184,871.535706 330.390747,870.421143 335.464020,870.943176 
	C340.075317,871.417664 345.781372,869.602417 349.112244,871.742371 
	C352.228668,873.744568 352.860809,879.613586 354.596771,883.806152 
	C358.272888,883.806152 361.899078,883.806152 366.112549,883.806152 
	C364.976013,881.033264 363.997437,878.645691 362.921448,875.470642 
z"/>
<path fill="#C99700" opacity="1.000000" stroke="none" 
	d="
M855.088562,333.020294 
	C854.491882,339.060547 850.579041,342.819336 845.779358,345.578125 
	C833.751404,352.491577 821.571777,359.141449 809.443665,365.880219 
	C788.472717,377.532349 767.498047,389.177856 746.516174,400.810364 
	C743.092590,402.708405 739.802002,405.068481 736.139832,406.268585 
	C728.206543,408.868469 726.602417,414.020386 726.740295,421.948120 
	C727.256287,451.602417 726.961609,481.271149 726.940674,510.934448 
	C726.925781,531.978760 718.158081,549.487061 705.156921,565.397034 
	C690.945496,582.787964 672.685059,594.920044 653.009094,604.835693 
	C633.332764,614.751465 612.430359,621.544373 590.787292,626.077271 
	C569.473450,630.541260 548.046753,633.086548 526.228455,633.125427 
	C508.475830,633.157104 490.861542,632.561584 473.231964,630.148132 
	C454.084198,627.526672 435.430420,623.177917 417.144135,617.068115 
	C392.429169,608.810364 369.793243,596.725830 349.683868,580.087524 
	C346.877350,577.765442 344.529114,574.889404 342.047394,572.350342 
	C341.512299,572.479675 341.221344,572.496582 340.981262,572.615845 
	C333.423065,576.370483 333.333954,582.255737 334.658539,589.812195 
	C336.358215,599.508911 336.198120,609.524109 336.984711,619.390442 
	C337.887238,630.710388 339.292908,642.000916 339.848846,653.335144 
	C340.454620,665.685303 327.877594,677.737610 315.262634,678.308533 
	C297.775299,679.099915 283.353485,662.223572 287.786285,644.878296 
	C289.717560,637.321411 289.354736,629.182007 290.074585,621.310913 
	C291.317261,607.723145 292.642456,594.142395 293.759857,580.544556 
	C293.852539,579.416992 292.937286,577.754517 291.972534,577.060547 
	C279.574310,568.143372 273.849640,556.166260 273.947052,540.869873 
	C274.014313,530.307678 274.556763,520.046814 281.163116,511.279205 
	C283.838318,507.728821 287.366425,504.832489 290.226715,501.405090 
	C291.521454,499.853607 292.917084,497.740387 292.935364,495.868958 
	C293.130615,475.873108 293.266479,455.871552 292.966705,435.878326 
	C292.830811,426.815399 295.833282,419.825348 304.173706,414.644623 
	C295.955566,409.962219 288.186005,405.459747 280.346344,401.082855 
	C257.104797,388.106934 233.841599,375.169891 210.574432,362.240021 
	C201.009552,356.924683 191.491837,351.515808 181.800079,346.440918 
	C176.292282,343.556854 172.195053,339.665497 170.419617,333.222656 
	C174.178162,325.834320 179.978012,321.690002 186.555771,318.095642 
	C208.038193,306.356903 229.359848,294.324280 250.766571,282.446594 
	C280.764404,265.802032 310.796204,249.218613 340.789154,232.565277 
	C368.744751,217.043167 396.652863,201.435516 424.611603,185.919083 
	C445.435333,174.362396 466.021912,162.330536 487.245483,151.557068 
	C504.600098,142.747528 522.891235,142.992767 540.114624,152.261658 
	C569.589050,168.123489 598.682312,184.693054 627.951904,200.936188 
	C659.407104,218.392258 690.885193,235.807266 722.345764,253.253738 
	C756.572083,272.233978 790.861572,291.102020 824.969666,310.292542 
	C835.972473,316.483124 848.818420,320.465668 855.088562,333.020294 
z"/>
<path fill="#C89600" opacity="1.000000" stroke="none" 
	d="
M350.969086,806.851868 
	C340.981689,806.901489 330.987488,807.154724 321.013031,806.819397 
	C319.142090,806.756531 316.739197,804.727417 315.616150,802.951538 
	C304.025635,784.623962 292.651764,766.159363 281.194946,747.747009 
	C280.787018,747.091492 280.144928,746.581665 279.000549,745.341187 
	C279.000549,766.166626 279.000549,786.313354 279.000549,806.727173 
	C267.511475,806.727173 256.602814,806.727173 245.244095,806.727173 
	C245.244095,801.713806 245.244095,796.793518 245.244095,791.838562 
	C239.330902,795.838806 234.022293,800.122986 228.113876,803.287170 
	C214.572891,810.538757 200.003021,811.019104 185.020416,809.185242 
	C171.767929,807.562988 160.479965,802.224670 151.382187,792.729614 
	C143.288177,784.282166 138.316544,773.976807 137.101791,762.235962 
	C136.372406,755.186218 136.401443,748.058044 136.426605,740.291016 
	C139.184357,731.747864 141.605118,723.878784 144.053009,715.786133 
	C144.080139,715.562561 144.131744,715.115173 144.441544,714.993042 
	C146.154541,712.909485 147.557755,710.948059 149.100372,708.750122 
	C149.505310,708.033203 149.770844,707.552673 150.357544,706.963501 
	C152.476532,704.915161 154.274384,702.975586 156.316864,700.910645 
	C157.039032,700.512573 157.516571,700.239990 158.330963,699.877319 
	C159.697998,699.250732 160.763306,698.771973 161.753174,698.169250 
	C181.091583,686.395874 201.466812,686.522644 222.339172,692.991516 
	C225.653809,694.018799 228.785965,695.634888 232.228989,697.000488 
	C232.455505,697.022217 232.909943,697.047302 233.032578,697.360962 
	C235.728821,700.124573 238.109467,702.838806 240.955185,704.915833 
	C242.440735,706.000183 245.671402,707.784973 244.917313,702.968750 
	C244.970398,699.956848 245.023468,696.944946 245.480026,693.354980 
	C248.439316,692.188965 250.977325,691.210632 253.554626,691.093018 
	C259.205933,690.835022 264.892700,691.274475 270.535645,690.937683 
	C275.900146,690.617493 279.181335,692.861755 281.817139,697.389221 
	C292.203827,715.230286 302.794373,732.953003 313.387207,750.673035 
	C314.472687,752.488953 316.079834,753.992981 317.444885,755.641724 
	C318.010834,755.453674 318.576782,755.265686 319.142731,755.077637 
	C319.417572,752.724670 319.920349,750.372620 319.930634,748.018494 
	C320.004028,731.196167 320.032806,714.373169 319.945282,697.551025 
	C319.921509,692.978882 321.638153,690.779236 326.445770,690.965637 
	C332.100250,691.184814 337.770020,690.990356 343.432922,691.018127 
	C350.153351,691.051086 351.018005,691.825317 351.019775,698.421631 
	C351.029510,734.565063 350.990997,770.708435 350.969086,806.851868 
M170.687408,758.619690 
	C171.265518,762.319153 171.375961,766.169189 172.510010,769.689575 
	C175.817200,779.955933 182.896149,786.042114 193.756470,787.421692 
	C203.678802,788.682068 211.957092,785.439819 217.756622,777.393677 
	C221.595261,772.068054 224.865768,766.136902 223.045120,758.341064 
	C223.095398,757.908875 223.145676,757.476685 223.726334,756.681274 
	C223.781403,755.113037 223.836487,753.544739 224.019470,751.072937 
	C223.969925,740.499329 222.972595,730.142883 216.987656,720.959839 
	C207.975861,707.132385 185.439713,708.169189 177.475143,720.752625 
	C172.475220,728.652100 170.740326,736.952393 170.283035,746.373230 
	C170.458542,748.596680 170.634048,750.820068 170.907822,753.863159 
	C170.961563,755.236450 171.015305,756.609741 170.687408,758.619690 
z"/>
<path fill="#C79600" opacity="1.000000" stroke="none" 
	d="
M662.809937,739.047668 
	C662.843933,745.382080 662.877930,751.716431 662.709229,758.642456 
	C662.307190,759.414978 662.129395,759.614990 661.973145,759.834106 
	C644.539917,759.834106 627.106750,759.834106 608.968445,759.834106 
	C608.968445,766.209106 608.968445,772.127136 608.860046,778.790039 
	C608.319275,784.226379 611.792114,783.932312 614.680359,783.949524 
	C628.944031,784.034546 643.208801,783.939880 657.472168,784.046631 
	C660.255737,784.067444 663.034668,784.699341 665.815735,785.049377 
	C665.852661,791.716125 665.889648,798.382874 665.725342,805.648132 
	C665.322266,806.433960 665.138733,806.637695 664.973450,806.857849 
	C635.195068,806.857849 605.416748,806.857849 575.229126,806.857849 
	C575.229126,775.643860 575.229126,744.724915 575.229126,713.405151 
	C563.782104,713.405151 552.733704,713.405151 541.090088,713.405151 
	C541.090088,744.338867 541.090088,775.377563 541.090088,806.706787 
	C529.588989,806.706787 518.674561,806.706787 507.164673,806.706787 
	C507.164673,775.632446 507.164673,744.593323 507.164673,713.138306 
	C495.322479,713.138306 484.061768,713.138306 472.084778,713.138306 
	C472.084778,705.818481 472.084778,698.897400 472.531799,691.413391 
	C475.614044,690.572083 478.249023,690.052734 480.884430,690.050659 
	C538.991516,690.004822 597.098694,689.984070 655.205566,690.103455 
	C658.411804,690.110046 661.615479,691.371094 664.820312,692.048218 
	C664.854126,698.381897 664.887878,704.715515 664.719788,711.644470 
	C664.316223,712.423767 664.134216,712.625488 663.971924,712.844971 
	C645.872864,712.844971 627.773804,712.844971 608.967407,712.844971 
	C608.967407,719.209045 608.967407,725.127441 608.840637,731.809570 
	C607.541016,737.343445 611.107971,736.931091 613.798584,736.952393 
	C626.935364,737.056458 640.075623,736.876282 653.209351,737.103149 
	C656.419739,737.158508 659.610291,738.368530 662.809937,739.047668 
z"/>
<path fill="#C79500" opacity="1.000000" stroke="none" 
	d="
M889.980591,806.829956 
	C879.201355,806.829956 868.422119,806.829956 857.239014,806.829956 
	C857.239014,791.322510 857.239014,776.071838 857.239014,760.413940 
	C845.470703,760.413940 834.095825,760.413940 822.125488,760.413940 
	C822.125488,775.628845 822.125488,790.999329 822.125488,806.683411 
	C810.631653,806.683411 799.722412,806.683411 787.998474,806.683411 
	C787.998474,793.177551 787.998474,779.608887 788.004761,765.240906 
	C787.977905,762.954041 787.944885,761.466553 787.968079,759.514648 
	C788.024292,749.777161 788.024292,740.504028 788.024292,731.164307 
	C785.623962,731.033020 783.811279,730.933899 781.998291,730.413696 
	C780.740540,714.326843 772.333435,703.343933 758.870605,696.259888 
	C748.888916,691.007629 737.822266,690.604858 726.722778,690.965515 
	C713.505249,691.395203 701.991394,695.909912 692.491211,705.066101 
	C675.445374,721.494568 670.514709,756.088379 681.625732,779.326721 
	C682.972168,782.142639 683.858093,785.178833 684.957397,788.112915 
	C678.398193,782.313965 675.781006,774.285522 674.263123,766.284119 
	C672.631958,757.685730 672.743652,748.756653 672.399780,739.346313 
	C672.772034,737.472778 672.839294,736.224854 672.906494,734.976868 
	C672.968140,734.547791 673.029724,734.118713 673.424438,733.175903 
	C674.843689,729.903320 675.768982,727.067139 677.051147,724.402649 
	C679.348145,719.629211 681.335205,714.585938 684.374634,710.311707 
	C696.186401,693.701355 712.785095,687.469910 732.825867,687.844543 
	C759.388672,688.341187 774.167847,697.902893 784.360718,722.451050 
	C784.905701,723.763428 785.996582,724.849121 786.833313,726.040344 
	C787.237854,724.912231 787.981323,723.787781 787.993591,722.655457 
	C788.096924,713.092407 788.066589,703.527954 788.460449,693.336182 
	C790.886536,692.141907 792.914429,691.156860 794.973389,691.086914 
	C801.284790,690.872375 807.612610,691.153320 813.925476,690.960205 
	C818.441223,690.822021 820.190186,692.717834 820.106323,697.184265 
	C819.937805,706.160339 819.959961,715.143982 820.145508,724.119507 
	C820.186523,726.102722 821.234009,728.065063 821.818115,730.036987 
	C821.863403,730.461731 821.908752,730.886536 821.956177,731.892334 
	C821.948853,732.649231 821.939575,732.825134 821.919434,733.246155 
	C821.908569,733.491211 821.916138,733.981689 821.820435,734.266602 
	C822.926697,735.643433 824.104980,737.649963 825.334351,737.681824 
	C834.640930,737.922791 843.964294,737.967590 853.267212,737.641418 
	C856.284912,737.535645 858.921814,735.930908 856.912231,731.973633 
	C856.965332,719.303711 857.018494,706.633850 857.476440,693.370972 
	C868.881042,689.928650 879.859314,689.801392 890.810974,693.038574 
	C890.845825,730.378540 890.880737,767.718567 890.710083,805.648254 
	C890.308289,806.416138 890.133667,806.613464 889.980591,806.829956 
z"/>
<path fill="#C79600" opacity="1.000000" stroke="none" 
	d="
M442.973114,759.835632 
	C434.163147,759.892090 425.353210,759.970154 416.543152,759.998901 
	C407.919586,760.027100 399.295868,760.005005 389.964111,760.005005 
	C389.964111,766.543762 389.964111,772.794861 389.854980,779.789856 
	C389.345856,785.232361 392.833801,784.889282 395.708984,784.906250 
	C409.967926,784.990601 424.228088,784.893066 438.486725,785.003174 
	C441.266754,785.024597 444.041901,785.681885 446.819305,786.045898 
	C446.819305,792.823975 446.819305,799.602051 446.819305,806.966492 
	C417.005371,806.966492 387.474976,806.966492 357.351257,806.751831 
	C356.577423,806.330872 356.378998,806.143494 356.162659,805.975098 
	C356.134766,768.307129 356.106873,730.639221 356.524506,692.402344 
	C359.268494,691.549988 361.566345,691.025818 363.865509,691.020142 
	C388.150146,690.959778 412.435486,690.910034 436.719177,691.072815 
	C439.753998,691.093201 442.780457,692.357788 445.810791,693.045898 
	C445.843781,699.048096 445.876770,705.050293 445.706329,711.643311 
	C445.304718,712.415161 445.128601,712.615479 444.974548,712.835144 
	C426.874664,712.835144 408.774811,712.835144 389.964111,712.835144 
	C389.964111,719.542847 389.964111,725.794434 389.855774,732.790039 
	C389.133331,737.559326 392.043213,737.823792 394.708527,737.880310 
	C401.497467,738.024292 408.294403,737.817566 415.082123,737.988708 
	C424.659607,738.230103 434.231689,738.685608 443.806091,739.049561 
	C443.839752,745.383240 443.873413,751.716919 443.704407,758.641785 
	C443.303528,759.414551 443.127319,759.615479 442.973114,759.835632 
z"/>
<path fill="#C89600" opacity="1.000000" stroke="none" 
	d="
M684.985107,788.458862 
	C683.858093,785.178833 682.972168,782.142639 681.625732,779.326721 
	C670.514709,756.088379 675.445374,721.494568 692.491211,705.066101 
	C701.991394,695.909912 713.505249,691.395203 726.722778,690.965515 
	C737.822266,690.604858 748.888916,691.007629 758.870605,696.259888 
	C772.333435,703.343933 780.740540,714.326843 781.536133,730.482239 
	C772.983765,731.313965 764.892151,731.632446 756.803406,732.011292 
	C754.012878,732.141968 752.581848,731.613770 751.795898,728.216003 
	C749.959900,720.278259 745.872131,713.495178 737.401917,711.077087 
	C724.292664,707.334412 713.776917,715.358643 709.917786,726.687744 
	C706.648193,736.286133 706.653870,746.086243 706.924561,756.302673 
	C707.692566,761.759399 707.951660,767.160583 709.760193,771.980286 
	C713.838257,782.848145 721.640137,787.502380 733.045471,786.957947 
	C742.623108,786.500732 749.184937,781.220642 752.209229,770.261841 
	C753.722046,764.779846 756.794678,763.717896 761.709290,764.015747 
	C770.162659,764.527954 778.636230,764.706055 787.101318,765.024414 
	C783.123840,787.475281 769.281860,803.328247 747.124939,807.927917 
	C731.567627,811.157471 716.033997,810.685730 701.902283,802.753296 
	C695.636780,799.236328 690.604736,793.521790 684.985107,788.458862 
z"/>
<path fill="#A07800" opacity="1.000000" stroke="none" 
	d="
M855.405884,332.815674 
	C848.818420,320.465668 835.972473,316.483124 824.969666,310.292542 
	C790.861572,291.102020 756.572083,272.233978 722.345764,253.253738 
	C690.885193,235.807266 659.407104,218.392258 627.951904,200.936188 
	C598.682312,184.693054 569.589050,168.123489 540.114624,152.261658 
	C522.891235,142.992767 504.600098,142.747528 487.245483,151.557068 
	C466.021912,162.330536 445.435333,174.362396 424.611603,185.919083 
	C396.652863,201.435516 368.744751,217.043167 340.789154,232.565277 
	C310.796204,249.218613 280.764404,265.802032 250.766571,282.446594 
	C229.359848,294.324280 208.038193,306.356903 186.555771,318.095642 
	C179.978012,321.690002 174.178162,325.834320 170.454590,332.863739 
	C168.860245,325.392609 173.463882,320.556396 179.019958,317.178955 
	C190.669632,310.097229 202.765274,303.748596 214.683945,297.109985 
	C237.944260,284.154175 261.195435,271.181854 284.476166,258.262848 
	C300.863373,249.169144 317.317230,240.195343 333.698181,231.090439 
	C356.249542,218.555908 378.745758,205.922211 401.293701,193.381470 
	C414.656158,185.949493 428.088562,178.643311 441.460663,171.228485 
	C455.834045,163.258423 469.920197,154.713745 484.639984,147.449860 
	C491.516327,144.056549 499.477783,142.389954 507.143066,141.161774 
	C525.511658,138.218689 540.772339,146.806854 555.912415,155.479904 
	C569.031982,162.995438 582.216919,170.397705 595.415222,177.774445 
	C618.802246,190.845871 642.214417,203.872437 665.629883,216.892929 
	C678.273193,223.923401 690.952148,230.889664 703.602539,237.907471 
	C727.605957,251.223358 751.580566,264.591461 775.605469,277.868408 
	C792.149658,287.011261 808.779419,295.999146 825.328979,305.132263 
	C832.953918,309.340179 840.594360,313.541626 848.009155,318.101562 
	C853.248596,321.323761 855.836609,326.346252 855.405884,332.815674 
z"/>
<path fill="#C49300" opacity="1.000000" stroke="none" 
	d="
M712.074951,834.127747 
	C707.063171,842.910461 702.000793,851.665161 697.093689,860.506042 
	C696.351807,861.842529 696.057922,863.574890 696.027710,865.133240 
	C695.909241,871.248230 695.979248,877.366821 695.979248,883.739868 
	C692.224792,883.739868 688.971497,883.739868 684.615112,883.739868 
	C687.386780,868.110474 683.704773,854.151855 673.111572,842.122437 
	C673.111572,855.790039 673.111572,869.487976 673.111572,883.594727 
	C669.348999,883.594727 665.985596,883.594727 662.233887,883.594727 
	C662.233887,872.126953 662.233887,860.696045 662.233887,849.265076 
	C661.911438,849.185974 661.588989,849.106873 661.266541,849.027710 
	C659.182983,854.467468 657.035217,859.883728 655.034973,865.353943 
	C653.247070,870.243652 651.424866,875.136047 649.983643,880.132751 
	C648.697510,884.591614 645.383057,883.899963 642.082581,884.073425 
	C638.966797,884.237183 637.509949,883.259094 636.457092,880.119568 
	C633.170471,870.318970 629.410278,860.677185 625.029907,851.127563 
	C625.029907,861.833069 625.029907,872.538574 625.029907,883.970459 
	C621.756531,883.970459 618.834351,883.970459 615.333374,883.753418 
	C614.576660,883.332886 614.380615,883.148682 614.166565,882.983704 
	C614.135986,866.643311 614.105347,850.302979 614.520264,833.400391 
	C625.339111,830.508850 627.338806,831.662842 630.750244,841.676208 
	C633.489136,849.715637 636.188904,857.774353 639.221802,865.703674 
	C640.025146,867.803955 641.994324,869.458313 643.428162,871.317444 
	C644.679382,869.500732 646.366638,867.845032 647.107544,865.839722 
	C650.626648,856.315308 653.840515,846.678528 657.289917,837.127563 
	C657.830261,835.631409 658.730774,833.964844 659.966858,833.073059 
	C664.882019,829.526794 677.321350,832.460693 680.335449,837.737610 
	C682.729858,841.929382 684.864502,846.276550 687.395142,850.381714 
	C689.854492,854.371155 691.927063,854.318359 694.284424,850.276611 
	C696.967102,845.677307 699.286865,840.866333 701.967651,836.265808 
	C704.727966,831.528625 707.769775,830.977295 712.074951,834.127747 
z"/>
<path fill="#BD8E00" opacity="1.000000" stroke="none" 
	d="
M436.388245,866.308716 
	C441.215424,853.085144 445.819305,840.190308 450.434967,827.262451 
	C454.860931,827.262451 459.000977,827.262451 463.513733,827.262451 
	C470.240387,845.915771 476.983307,864.614197 483.841583,883.632507 
	C482.844818,883.763123 482.082123,883.922729 481.314148,883.954590 
	C472.321899,884.328247 472.087738,884.393494 469.531158,875.880432 
	C468.382660,872.056213 466.745392,870.521179 462.670624,870.934082 
	C458.550812,871.351501 454.344391,871.215576 450.197357,870.965881 
	C446.969635,870.771484 445.520782,871.862183 444.836304,875.108582 
	C444.210175,878.078247 442.655243,880.852051 441.455261,883.847717 
	C437.857056,883.847717 434.221375,883.847717 430.144989,883.847717 
	C432.218933,877.918579 434.191925,872.278015 436.388245,866.308716 
M450.148529,861.641785 
	C451.579254,866.883728 455.898407,864.596252 459.101196,864.951294 
	C461.886627,865.260132 463.849976,864.028809 463.942657,860.108276 
	C461.738190,853.723694 459.533722,847.339050 456.851593,839.570984 
	C454.256805,847.714294 452.161865,854.288940 450.148529,861.641785 
z"/>
<path fill="#BD8E00" opacity="1.000000" stroke="none" 
	d="
M362.970154,875.864380 
	C363.997437,878.645691 364.976013,881.033264 366.112549,883.806152 
	C361.899078,883.806152 358.272888,883.806152 354.596771,883.806152 
	C352.860809,879.613586 352.228668,873.744568 349.112244,871.742371 
	C345.781372,869.602417 340.075317,871.417664 335.464020,870.943176 
	C330.390747,870.421143 327.332184,871.535706 325.922577,877.110107 
	C323.955994,884.886841 323.556458,884.785828 312.268738,883.603271 
	C319.056885,864.775574 325.797791,846.078857 332.485779,827.528992 
	C332.848785,827.371887 332.998383,827.256897 333.154877,827.246643 
	C345.473938,826.439758 345.390503,826.469727 349.470398,838.080322 
	C353.861389,850.576355 358.430206,863.009827 362.970154,875.864380 
M345.974548,860.090210 
	C343.785248,853.703003 341.595917,847.315857 339.406586,840.928650 
	C339.069275,841.001587 338.731964,841.074463 338.394653,841.147400 
	C336.285278,847.719727 334.175903,854.292053 332.153442,861.641418 
	C333.584534,866.879883 337.902008,864.597961 341.104889,864.951965 
	C343.887329,865.259460 345.856079,864.035767 345.974548,860.090210 
z"/>
<path fill="#C39300" opacity="1.000000" stroke="none" 
	d="
M494.182465,882.978516 
	C494.149780,866.975037 494.117096,850.971497 494.489014,834.379150 
	C501.917633,833.202454 508.951111,832.046936 515.963501,832.163147 
	C525.912476,832.328003 533.882812,836.558655 538.450867,845.967651 
	C539.003235,847.105469 540.010986,848.022156 540.807678,849.041382 
	C540.858582,849.472412 540.909424,849.903503 540.849243,850.912659 
	C541.097534,852.673767 541.456909,853.856750 541.816284,855.039734 
	C541.537598,866.809692 538.566040,877.123413 526.294800,881.815674 
	C523.019287,883.068115 519.376831,883.750610 515.866333,883.915405 
	C509.238647,884.226379 502.584412,883.971741 495.354095,883.735046 
	C494.592468,883.316101 494.397614,883.136292 494.182465,882.978516 
M530.023499,862.057251 
	C530.022095,858.729675 530.115479,855.398682 529.998596,852.075195 
	C529.786560,846.046265 525.821167,839.214111 521.366211,838.303528 
	C516.488953,837.306580 511.437317,837.162415 506.072723,836.606323 
	C506.072723,849.748413 506.072723,861.863281 505.736603,874.536865 
	C506.890350,875.968201 508.049652,878.619812 509.196838,878.614563 
	C513.598572,878.594604 518.227905,878.402100 522.339355,877.002380 
	C527.949951,875.092346 530.928894,868.637146 530.023499,862.057251 
z"/>
<path fill="#9E7700" opacity="1.000000" stroke="none" 
	d="
M664.902466,691.607056 
	C661.615479,691.371094 658.411804,690.110046 655.205566,690.103455 
	C597.098694,689.984070 538.991516,690.004822 480.884430,690.050659 
	C478.249023,690.052734 475.614044,690.572083 472.584778,690.950684 
	C472.190674,689.252625 472.190674,687.454224 472.190674,685.338257 
	C536.356018,685.338257 600.311401,685.338257 664.984558,685.338257 
	C664.984558,687.325928 664.984558,689.245972 664.902466,691.607056 
z"/>
<path fill="#C39300" opacity="1.000000" stroke="none" 
	d="
M589.972412,859.856140 
	C581.883362,859.856140 573.794312,859.856140 564.978210,859.856140 
	C564.978210,864.521973 564.978210,868.753967 565.018921,873.844604 
	C565.125366,878.773010 567.984253,878.862183 570.977356,878.983459 
	C578.262573,879.278442 585.543396,879.680847 592.825989,880.040039 
	C592.825989,881.191284 592.825989,882.342529 592.825989,883.753174 
	C580.019714,883.753174 567.324219,883.753174 554.078613,883.753174 
	C554.078613,867.022949 554.078613,850.497131 554.525024,833.403076 
	C556.770569,832.554382 558.568420,832.041626 560.369202,832.031372 
	C570.846497,831.971741 581.324463,832.030151 591.802246,832.048584 
	C591.802246,833.517761 591.802246,834.986877 591.802246,836.912781 
	C583.018799,836.912781 574.325623,836.912781 564.984436,836.912781 
	C564.984436,841.578796 564.984436,845.811768 564.909607,850.771118 
	C565.220703,855.619690 568.485229,855.712036 571.372070,855.863647 
	C575.824646,856.097534 580.296631,855.964172 584.760376,855.980652 
	C587.454895,855.990601 589.792297,856.469849 589.972412,859.856140 
z"/>
<path fill="#C49300" opacity="1.000000" stroke="none" 
	d="
M423.072906,870.119507 
	C419.568115,879.677795 412.153992,884.435059 402.315155,885.125549 
	C384.200256,886.396973 373.235352,873.011169 374.034454,856.949524 
	C374.117096,855.289124 374.071045,853.622253 374.412598,851.312988 
	C375.899933,848.293030 376.952026,845.858643 378.237366,843.554321 
	C383.881744,833.435486 392.826843,830.101929 403.928223,831.031799 
	C414.013245,831.876465 419.951019,837.548218 422.960449,846.830994 
	C419.884888,847.044312 416.809296,847.257629 413.425507,847.492310 
	C412.862518,845.914062 412.379089,843.848022 411.426758,842.027283 
	C408.952484,837.296692 403.743805,835.005676 397.626801,836.070129 
	C391.273651,837.175598 387.698273,841.666809 386.170746,847.421082 
	C385.100098,851.454163 385.333984,855.833496 384.880554,860.815796 
	C384.429230,870.672058 388.157043,877.503052 395.223846,879.316895 
	C401.938080,881.040222 409.103088,880.980896 413.607147,871.047913 
	C415.412384,867.066711 418.862976,867.007568 423.072906,870.119507 
z"/>
<path fill="#A97E00" opacity="1.000000" stroke="none" 
	d="
M351.400940,806.885803 
	C350.990997,770.708435 351.029510,734.565063 351.019775,698.421631 
	C351.018005,691.825317 350.153351,691.051086 343.432922,691.018127 
	C337.770020,690.990356 332.100250,691.184814 326.445770,690.965637 
	C321.638153,690.779236 319.921509,692.978882 319.945282,697.551025 
	C320.032806,714.373169 320.004028,731.196167 319.930634,748.018494 
	C319.920349,750.372620 319.417572,752.724670 319.142731,755.077637 
	C318.576782,755.265686 318.010834,755.453674 317.444885,755.641724 
	C316.079834,753.992981 314.472687,752.488953 313.387207,750.673035 
	C302.794373,732.953003 292.203827,715.230286 281.817139,697.389221 
	C279.181335,692.861755 275.900146,690.617493 270.535645,690.937683 
	C264.892700,691.274475 259.205933,690.835022 253.554626,691.093018 
	C250.977325,691.210632 248.439316,692.188965 245.532135,692.906555 
	C245.180786,690.908264 245.180786,688.780334 245.180786,686.081604 
	C256.058411,686.081604 266.665192,685.940918 277.258759,686.250488 
	C278.663788,686.291504 280.391144,688.389221 281.312103,689.927795 
	C293.264008,709.896057 305.096985,729.935486 318.049469,749.829834 
	C318.049469,730.199829 318.049469,710.569885 318.510315,690.376648 
	C330.249237,689.547180 341.527313,689.281006 352.805359,689.014832 
	C352.880432,715.246338 352.965179,741.477783 353.026093,767.709290 
	C353.052673,779.166443 353.077209,790.624084 352.977081,802.080383 
	C352.962952,803.696716 352.231995,805.306763 351.400940,806.885803 
z"/>
<path fill="#A27900" opacity="1.000000" stroke="none" 
	d="
M786.913147,725.643311 
	C785.996582,724.849121 784.905701,723.763428 784.360718,722.451050 
	C774.167847,697.902893 759.388672,688.341187 732.825867,687.844543 
	C712.785095,687.469910 696.186401,693.701355 684.374634,710.311707 
	C681.335205,714.585938 679.348145,719.629211 677.051147,724.402649 
	C675.768982,727.067139 674.843689,729.903320 673.476807,732.854126 
	C674.168335,722.150635 678.044067,712.338074 684.783630,703.794434 
	C700.207092,684.242615 721.001282,680.762634 744.207397,683.864441 
	C761.190063,686.134460 773.680603,694.618774 781.619385,709.531128 
	C784.187805,714.355774 785.244690,719.985107 786.913147,725.643311 
z"/>
<path fill="#A77D00" opacity="1.000000" stroke="none" 
	d="
M712.378662,833.950562 
	C707.769775,830.977295 704.727966,831.528625 701.967651,836.265808 
	C699.286865,840.866333 696.967102,845.677307 694.284424,850.276611 
	C691.927063,854.318359 689.854492,854.371155 687.395142,850.381714 
	C684.864502,846.276550 682.729858,841.929382 680.335449,837.737610 
	C677.321350,832.460693 664.882019,829.526794 659.966858,833.073059 
	C658.730774,833.964844 657.830261,835.631409 657.289917,837.127563 
	C653.840515,846.678528 650.626648,856.315308 647.107544,865.839722 
	C646.366638,867.845032 644.679382,869.500732 643.428162,871.317444 
	C641.994324,869.458313 640.025146,867.803955 639.221802,865.703674 
	C636.188904,857.774353 633.489136,849.715637 630.750244,841.676208 
	C627.338806,831.662842 625.339111,830.508850 614.578491,832.937256 
	C614.191101,831.239075 614.191101,829.441833 614.191101,827.061768 
	C618.225220,827.061768 622.044373,826.783325 625.780518,827.218384 
	C627.025940,827.363342 628.591492,829.135986 629.103943,830.504211 
	C633.184570,841.398254 637.033447,852.378845 640.990234,863.319641 
	C641.595520,864.993408 642.389343,866.598938 643.339233,868.799500 
	C647.959412,855.979126 652.532654,843.832520 656.643494,831.531311 
	C657.788696,828.104370 659.339355,827.376770 662.793274,826.869385 
	C673.885010,825.240173 681.403687,828.571045 685.036743,839.729126 
	C686.182312,843.247498 688.644165,846.337280 690.745300,850.050232 
	C694.190918,844.053650 698.023193,838.470154 700.691711,832.377014 
	C702.629089,827.953369 705.132202,826.376770 709.646301,827.006775 
	C711.410339,827.252991 713.237549,827.047058 715.632874,827.047058 
	C714.501831,829.625549 713.592102,831.699524 712.378662,833.950562 
z"/>
<path fill="#A27900" opacity="1.000000" stroke="none" 
	d="
M445.895447,692.605835 
	C442.780457,692.357788 439.753998,691.093201 436.719177,691.072815 
	C412.435486,690.910034 388.150146,690.959778 363.865509,691.020142 
	C361.566345,691.025818 359.268494,691.549988 356.576569,691.939087 
	C356.183105,690.249634 356.183105,688.454590 356.183105,686.344421 
	C386.020691,686.344421 415.642059,686.344421 445.980133,686.344421 
	C445.980133,688.333740 445.980133,690.249756 445.895447,692.605835 
z"/>
<path fill="#A47B00" opacity="1.000000" stroke="none" 
	d="
M787.311157,765.037842 
	C778.636230,764.706055 770.162659,764.527954 761.709290,764.015747 
	C756.794678,763.717896 753.722046,764.779846 752.209229,770.261841 
	C749.184937,781.220642 742.623108,786.500732 733.045471,786.957947 
	C721.640137,787.502380 713.838257,782.848145 709.760193,771.980286 
	C707.951660,767.160583 707.692566,761.759399 707.251343,756.512878 
	C709.523682,761.633728 710.550354,767.271606 713.207031,771.992249 
	C716.629578,778.073975 722.363098,781.816467 729.722107,782.011902 
	C741.972412,782.337097 749.188599,775.855103 752.647827,762.008972 
	C762.498901,762.294861 771.893127,762.710266 781.288635,762.740479 
	C782.858704,762.745544 784.434204,761.077637 786.320190,760.115723 
	C787.059448,760.025452 787.485596,760.002197 787.911865,759.979004 
	C787.944885,761.466553 787.977905,762.954041 787.973511,764.780762 
	C787.936096,765.119873 787.521057,765.051270 787.311157,765.037842 
z"/>
<path fill="#A07800" opacity="1.000000" stroke="none" 
	d="
M157.994110,699.967407 
	C157.516571,700.239990 157.039032,700.512573 155.981476,700.994995 
	C153.613113,703.160645 151.824768,705.116455 150.036407,707.072205 
	C149.770844,707.552673 149.505310,708.033203 148.722244,708.748291 
	C147.446579,708.971802 146.688446,708.960571 145.930313,708.949341 
	C150.694763,699.296753 158.760696,693.050903 168.299713,689.069031 
	C188.176788,680.771851 208.300110,680.689087 227.822037,690.169800 
	C233.309265,692.834717 237.806763,697.537476 242.645447,701.731934 
	C239.325073,700.454651 236.117508,698.750977 232.909943,697.047302 
	C232.909943,697.047302 232.455505,697.022217 232.088013,696.694763 
	C230.269669,695.306030 228.950592,693.953918 227.347885,693.227905 
	C208.818848,684.834229 189.900574,684.682983 171.027878,691.602783 
	C166.297028,693.337463 162.318436,697.123901 157.994110,699.967407 
z"/>
<path fill="#A07800" opacity="1.000000" stroke="none" 
	d="
M446.899261,785.611328 
	C444.041901,785.681885 441.266754,785.024597 438.486725,785.003174 
	C424.228088,784.893066 409.967926,784.990601 395.708984,784.906250 
	C392.833801,784.889282 389.345856,785.232361 389.911438,780.253662 
	C408.816345,779.973633 427.555603,779.973633 446.674133,779.973633 
	C446.792450,781.991577 446.885834,783.584167 446.899261,785.611328 
z"/>
<path fill="#9E7700" opacity="1.000000" stroke="none" 
	d="
M665.895569,784.614868 
	C663.034668,784.699341 660.255737,784.067444 657.472168,784.046631 
	C643.208801,783.939880 628.944031,784.034546 614.680359,783.949524 
	C611.792114,783.932312 608.319275,784.226379 608.916931,779.253662 
	C627.818420,778.972473 646.554565,778.972473 665.675293,778.972473 
	C665.791870,780.995789 665.883667,782.588074 665.895569,784.614868 
z"/>
<path fill="#A07800" opacity="1.000000" stroke="none" 
	d="
M662.894165,738.607483 
	C659.610291,738.368530 656.419739,737.158508 653.209351,737.103149 
	C640.075623,736.876282 626.935364,737.056458 613.798584,736.952393 
	C611.107971,736.931091 607.541016,737.343445 608.895142,732.273499 
	C626.806274,731.973755 644.536072,731.973755 662.978333,731.973755 
	C662.978333,734.334961 662.978333,736.251160 662.894165,738.607483 
z"/>
<path fill="#A07800" opacity="1.000000" stroke="none" 
	d="
M443.887268,738.615234 
	C434.231689,738.685608 424.659607,738.230103 415.082123,737.988708 
	C408.294403,737.817566 401.497467,738.024292 394.708527,737.880310 
	C392.043213,737.823792 389.133331,737.559326 389.912445,733.253845 
	C407.816010,732.973572 425.554596,732.973572 443.675507,732.973572 
	C443.789307,734.996094 443.878906,736.588440 443.887268,738.615234 
z"/>
<path fill="#A27900" opacity="1.000000" stroke="none" 
	d="
M423.330505,846.881897 
	C419.951019,837.548218 414.013245,831.876465 403.928223,831.031799 
	C392.826843,830.101929 383.881744,833.435486 378.237366,843.554321 
	C376.952026,845.858643 375.899933,848.293030 374.462860,850.854309 
	C373.991058,834.927551 390.009888,822.713867 405.898468,826.350769 
	C416.397919,828.754089 422.271027,835.107117 424.611633,845.235657 
	C424.720337,845.706116 424.022675,846.362854 423.330505,846.881897 
z"/>
<path fill="#A27900" opacity="1.000000" stroke="none" 
	d="
M540.888062,848.653198 
	C540.010986,848.022156 539.003235,847.105469 538.450867,845.967651 
	C533.882812,836.558655 525.912476,832.328003 515.963501,832.163147 
	C508.951111,832.046936 501.917633,833.202454 494.540833,833.915649 
	C494.188049,831.914490 494.188049,829.787964 494.188049,826.422852 
	C504.335724,827.136353 514.354004,826.848022 523.919922,828.788940 
	C533.742859,830.782043 539.207581,838.323181 540.888062,848.653198 
z"/>
<path fill="#A47B00" opacity="1.000000" stroke="none" 
	d="
M423.395203,869.905518 
	C418.862976,867.007568 415.412384,867.066711 413.607147,871.047913 
	C409.103088,880.980896 401.938080,881.040222 395.223846,879.316895 
	C388.157043,877.503052 384.429230,870.672058 384.944672,861.268311 
	C385.850739,862.888794 386.450226,864.881287 387.349640,866.727661 
	C390.648163,873.499084 395.240936,875.898132 402.929840,875.020569 
	C408.486084,874.386414 411.772766,870.775574 413.473358,863.034973 
	C415.309357,863.034973 417.265442,863.034973 419.221527,863.034973 
	C421.021210,863.034973 422.820923,863.034973 425.225250,863.034973 
	C424.635376,865.639343 424.176453,867.665405 423.395203,869.905518 
z"/>
<path fill="#9E7700" opacity="1.000000" stroke="none" 
	d="
M591.881042,831.616943 
	C581.324463,832.030151 570.846497,831.971741 560.369202,832.031372 
	C558.568420,832.041626 556.770569,832.554382 554.577820,832.939941 
	C554.184265,831.253601 554.184265,829.462341 554.184265,827.054932 
	C566.223633,827.054932 578.078247,826.984314 589.926270,827.231445 
	C590.631287,827.246155 591.283203,829.808533 591.881042,831.616943 
z"/>
<path fill="#A77D00" opacity="1.000000" stroke="none" 
	d="
M890.891602,692.598999 
	C879.859314,689.801392 868.881042,689.928650 857.529480,692.907349 
	C857.177734,690.908936 857.177734,688.781250 857.177734,686.350708 
	C868.381775,686.350708 879.301514,686.350708 890.972229,686.350708 
	C890.972229,688.320374 890.972229,690.239929 890.891602,692.598999 
z"/>
<path fill="#A77D00" opacity="1.000000" stroke="none" 
	d="
M821.902710,729.572693 
	C821.234009,728.065063 820.186523,726.102722 820.145508,724.119507 
	C819.959961,715.143982 819.937805,706.160339 820.106323,697.184265 
	C820.190186,692.717834 818.441223,690.822021 813.925476,690.960205 
	C807.612610,691.153320 801.284790,690.872375 794.973389,691.086914 
	C792.914429,691.156860 790.886536,692.141907 788.511780,692.872314 
	C788.131470,692.277893 788.083801,691.519592 788.508911,690.332520 
	C799.927795,689.938538 810.873779,689.973267 821.819824,690.008057 
	C821.875610,703.041504 821.931519,716.074951 821.902710,729.572693 
z"/>
<path fill="#A77D00" opacity="1.000000" stroke="none" 
	d="
M590.396606,859.890991 
	C589.792297,856.469849 587.454895,855.990601 584.760376,855.980652 
	C580.296631,855.964172 575.824646,856.097534 571.372070,855.863647 
	C568.485229,855.712036 565.220703,855.619690 564.961548,851.232056 
	C573.808472,850.966614 582.528687,850.966614 592.413025,850.966614 
	C591.811401,854.352112 591.316101,857.138977 590.396606,859.890991 
z"/>
<path fill="#A07800" opacity="1.000000" stroke="none" 
	d="
M592.902466,879.605652 
	C585.543396,879.680847 578.262573,879.278442 570.977356,878.983459 
	C567.984253,878.862183 565.125366,878.773010 565.055176,874.302856 
	C574.132385,873.902527 583.214172,873.902527 592.662598,873.902527 
	C592.788208,875.994141 592.883545,877.582703 592.902466,879.605652 
z"/>
<path fill="#9E7700" opacity="1.000000" stroke="none" 
	d="
M821.916138,733.981689 
	C821.916138,733.981689 821.908569,733.491211 822.100220,733.121704 
	C822.524780,732.576721 822.748901,732.390747 822.964233,732.194214 
	C833.668640,732.144348 844.372986,732.094482 855.478760,732.470886 
	C854.055359,733.924988 852.268311,735.751038 850.399109,735.839600 
	C843.101135,736.185120 835.772095,736.131958 828.465820,735.889099 
	C826.263916,735.815857 824.098328,734.648010 821.916138,733.981689 
z"/>
<path fill="#9E7700" opacity="1.000000" stroke="none" 
	d="
M352.863037,688.587891 
	C341.527313,689.281006 330.249237,689.547180 318.577087,689.912964 
	C318.182953,688.870056 318.182953,687.727600 318.182953,686.047058 
	C329.210297,686.047058 340.087891,686.010193 350.963562,686.137512 
	C351.623749,686.145264 352.268677,687.456299 352.863037,688.587891 
z"/>
<path fill="#A07800" opacity="1.000000" stroke="none" 
	d="
M821.882019,689.581909 
	C810.873779,689.973267 799.927795,689.938538 788.575134,689.956177 
	C788.168518,688.866211 788.168518,687.723938 788.168518,686.055481 
	C798.858398,686.055481 809.393921,685.997314 819.924927,686.188599 
	C820.615784,686.201111 821.271912,688.122314 821.882019,689.581909 
z"/>
<path fill="#A77D00" opacity="1.000000" stroke="none" 
	d="
M821.820435,734.266602 
	C824.098328,734.648010 826.263916,735.815857 828.465820,735.889099 
	C835.772095,736.131958 843.101135,736.185120 850.399109,735.839600 
	C852.268311,735.751038 854.055359,733.924988 855.944946,732.528442 
	C856.009644,732.159729 856.452576,732.026062 856.682373,731.999878 
	C858.921814,735.930908 856.284912,737.535645 853.267212,737.641418 
	C843.964294,737.967590 834.640930,737.922791 825.334351,737.681824 
	C824.104980,737.649963 822.926697,735.643433 821.820435,734.266602 
z"/>
<path fill="#A97E00" opacity="1.000000" stroke="none" 
	d="
M144.025909,716.009766 
	C141.605118,723.878784 139.184357,731.747864 136.480469,739.827698 
	C137.894287,732.145386 139.591248,724.252319 141.945496,716.166626 
	C143.077148,715.985901 143.551529,715.997864 144.025909,716.009766 
z"/>
<path fill="#A97E00" opacity="1.000000" stroke="none" 
	d="
M233.032578,697.360962 
	C236.117508,698.750977 239.325073,700.454651 242.788986,702.031921 
	C243.492172,702.213440 243.938995,702.521362 244.651566,702.899048 
	C245.671402,707.784973 242.440735,706.000183 240.955185,704.915833 
	C238.109467,702.838806 235.728821,700.124573 233.032578,697.360962 
z"/>
<path fill="#A97E00" opacity="1.000000" stroke="none" 
	d="
M145.954300,708.961670 
	C146.688446,708.960571 147.446579,708.971802 148.582840,708.984802 
	C147.557755,710.948059 146.154541,712.909485 144.242645,714.791748 
	C143.455948,714.463501 143.177933,714.214478 142.899933,713.965454 
	C143.059113,713.393433 143.218277,712.821472 143.934235,711.964600 
	C144.978027,710.762451 145.465042,709.845093 145.952057,708.927734 
	C145.952057,708.927734 145.978287,708.974060 145.954300,708.961670 
z"/>
<path fill="#A27900" opacity="1.000000" stroke="none" 
	d="
M541.902100,854.675842 
	C541.456909,853.856750 541.097534,852.673767 540.907166,851.233398 
	C541.380127,852.087952 541.684021,853.199951 541.902100,854.675842 
z"/>
<path fill="#A27900" opacity="1.000000" stroke="none" 
	d="
M672.585449,735.168579 
	C672.839294,736.224854 672.772034,737.472778 672.449158,738.883179 
	C672.217102,737.817139 672.240723,736.588684 672.585449,735.168579 
z"/>
<path fill="#A07800" opacity="1.000000" stroke="none" 
	d="
M145.655518,709.062439 
	C145.465042,709.845093 144.978027,710.762451 144.198166,711.821655 
	C144.389862,711.041443 144.874420,710.119263 145.655518,709.062439 
z"/>
<path fill="#A07800" opacity="1.000000" stroke="none" 
	d="
M142.633606,714.104126 
	C143.177933,714.214478 143.455948,714.463501 143.932846,714.913818 
	C144.131744,715.115173 144.080139,715.562561 144.053024,715.786194 
	C143.551529,715.997864 143.077148,715.985901 142.247223,715.965332 
	C142.050201,715.385376 142.208740,714.814087 142.633606,714.104126 
z"/>
<path fill="#A77D00" opacity="1.000000" stroke="none" 
	d="
M890.239868,806.852478 
	C890.133667,806.613464 890.308289,806.416138 890.658691,806.113770 
	C890.708191,806.284668 890.603638,806.579834 890.239868,806.852478 
z"/>
<path fill="#9E7700" opacity="1.000000" stroke="none" 
	d="
M665.240784,806.875732 
	C665.138733,806.637695 665.322266,806.433960 665.681152,806.113525 
	C665.728210,806.284851 665.618164,806.589172 665.240784,806.875732 
z"/>
<path fill="#A27900" opacity="1.000000" stroke="none" 
	d="
M356.135803,806.240479 
	C356.378998,806.143494 356.577423,806.330872 356.886353,806.696899 
	C356.712860,806.739685 356.410889,806.622803 356.135803,806.240479 
z"/>
<path fill="#A07800" opacity="1.000000" stroke="none" 
	d="
M662.236206,759.856995 
	C662.129395,759.614990 662.307190,759.414978 662.662720,759.107666 
	C662.712341,759.280701 662.605835,759.580322 662.236206,759.856995 
z"/>
<path fill="#A07800" opacity="1.000000" stroke="none" 
	d="
M443.235657,759.856567 
	C443.127319,759.615479 443.303528,759.414551 443.657898,759.106934 
	C443.708771,759.279724 443.603485,759.578674 443.235657,759.856567 
z"/>
<path fill="#A77D00" opacity="1.000000" stroke="none" 
	d="
M822.732910,732.120117 
	C822.748901,732.390747 822.524780,732.576721 822.111084,732.876587 
	C821.939575,732.825134 821.948853,732.649231 821.991882,732.211182 
	C822.025574,731.949097 822.501587,732.046021 822.732910,732.120117 
z"/>
<path fill="#9E7700" opacity="1.000000" stroke="none" 
	d="
M664.238037,712.866821 
	C664.134216,712.625488 664.316223,712.423767 664.675171,712.109680 
	C664.722961,712.282654 664.613586,712.585632 664.238037,712.866821 
z"/>
<path fill="#A27900" opacity="1.000000" stroke="none" 
	d="
M445.236633,712.856445 
	C445.128601,712.615479 445.304718,712.415161 445.658752,712.108398 
	C445.709351,712.280945 445.604034,712.579346 445.236633,712.856445 
z"/>
<path fill="#A27900" opacity="1.000000" stroke="none" 
	d="
M494.155029,883.237793 
	C494.397614,883.136292 494.592468,883.316101 494.889587,883.674927 
	C494.717316,883.720276 494.422424,883.608643 494.155029,883.237793 
z"/>
<path fill="#A77D00" opacity="1.000000" stroke="none" 
	d="
M614.140991,883.244995 
	C614.380615,883.148682 614.576660,883.332886 614.880737,883.694214 
	C614.709717,883.736694 614.412598,883.621460 614.140991,883.244995 
z"/>
<path fill="#000000" opacity="1.000000" stroke="none" 
	d="
M170.832260,745.960999 
	C170.740326,736.952393 172.475220,728.652100 177.475143,720.752625 
	C185.439713,708.169189 207.975861,707.132385 216.987656,720.959839 
	C222.972595,730.142883 223.969925,740.499329 223.631287,751.739136 
	C223.227386,753.951721 223.211655,755.498108 223.195938,757.044495 
	C223.145676,757.476685 223.095398,757.908875 222.652618,758.857788 
	C221.532547,761.881531 220.915359,764.426941 220.059631,766.889526 
	C214.159714,783.867737 191.800720,787.729065 180.216995,776.004089 
	C175.038239,770.762146 173.405075,764.339600 171.069031,757.983032 
	C171.015305,756.609741 170.961563,755.236450 170.946198,753.017090 
	C170.933807,750.101013 170.883041,748.031006 170.832260,745.960999 
z"/>
<path fill="#A47B00" opacity="1.000000" stroke="none" 
	d="
M170.878220,758.301392 
	C173.405075,764.339600 175.038239,770.762146 180.216995,776.004089 
	C191.800720,787.729065 214.159714,783.867737 220.059631,766.889526 
	C220.915359,764.426941 221.532547,761.881531 222.585358,759.177490 
	C224.865768,766.136902 221.595261,772.068054 217.756622,777.393677 
	C211.957092,785.439819 203.678802,788.682068 193.756470,787.421692 
	C182.896149,786.042114 175.817200,779.955933 172.510010,769.689575 
	C171.375961,766.169189 171.265518,762.319153 170.878220,758.301392 
z"/>
<path fill="#A97E00" opacity="1.000000" stroke="none" 
	d="
M158.330963,699.877319 
	C162.318436,697.123901 166.297028,693.337463 171.027878,691.602783 
	C189.900574,684.682983 208.818848,684.834229 227.347885,693.227905 
	C228.950592,693.953918 230.269669,695.306030 231.861481,696.672974 
	C228.785965,695.634888 225.653809,694.018799 222.339172,692.991516 
	C201.466812,686.522644 181.091583,686.395874 161.753174,698.169250 
	C160.763306,698.771973 159.697998,699.250732 158.330963,699.877319 
z"/>
<path fill="#A97E00" opacity="1.000000" stroke="none" 
	d="
M150.357544,706.963501 
	C151.824768,705.116455 153.613113,703.160645 155.736847,701.120483 
	C154.274384,702.975586 152.476532,704.915161 150.357544,706.963501 
z"/>
<path fill="#A47B00" opacity="1.000000" stroke="none" 
	d="
M170.557648,746.167114 
	C170.883041,748.031006 170.933807,750.101013 170.897064,752.607300 
	C170.634048,750.820068 170.458542,748.596680 170.557648,746.167114 
z"/>
<path fill="#A47B00" opacity="1.000000" stroke="none" 
	d="
M223.461136,756.862915 
	C223.211655,755.498108 223.227386,753.951721 223.567337,752.190918 
	C223.836487,753.544739 223.781403,755.113037 223.461136,756.862915 
z"/>
<path fill="#000000" opacity="1.000000" stroke="none" 
	d="
M787.968018,759.514648 
	C787.485596,760.002197 787.059448,760.025452 785.856445,760.050964 
	C779.330688,759.716125 773.585083,759.295593 767.831848,759.070496 
	C763.857849,758.915039 759.850098,758.785095 755.906677,759.160950 
	C754.589783,759.286499 753.425537,761.014099 752.191467,762.009338 
	C749.188599,775.855103 741.972412,782.337097 729.722107,782.011902 
	C722.363098,781.816467 716.629578,778.073975 713.207031,771.992249 
	C710.550354,767.271606 709.523682,761.633728 707.445740,756.193359 
	C706.653870,746.086243 706.648193,736.286133 709.917786,726.687744 
	C713.776917,715.358643 724.292664,707.334412 737.401917,711.077087 
	C745.872131,713.495178 749.959900,720.278259 751.795898,728.216003 
	C752.581848,731.613770 754.012878,732.141968 756.803406,732.011292 
	C764.892151,731.632446 772.983765,731.313965 781.536377,730.903259 
	C783.811279,730.933899 785.623962,731.033020 788.024292,731.164307 
	C788.024292,740.504028 788.024292,749.777161 787.968018,759.514648 
z"/>
<path fill="#000000" opacity="1.000000" stroke="none" 
	d="
M450.066895,860.863647 
	C452.161865,854.288940 454.256805,847.714294 456.851593,839.570984 
	C459.533722,847.339050 461.738190,853.723694 463.480103,860.536804 
	C458.700623,860.931458 454.383759,860.897583 450.066895,860.863647 
z"/>
<path fill="#A47B00" opacity="1.000000" stroke="none" 
	d="
M450.107697,861.252686 
	C454.383759,860.897583 458.700623,860.931458 463.474915,860.913452 
	C463.849976,864.028809 461.886627,865.260132 459.101196,864.951294 
	C455.898407,864.596252 451.579254,866.883728 450.107697,861.252686 
z"/>
<path fill="#000000" opacity="1.000000" stroke="none" 
	d="
M332.066559,860.864380 
	C334.175903,854.292053 336.285278,847.719727 338.394653,841.147400 
	C338.731964,841.074463 339.069275,841.001587 339.406586,840.928650 
	C341.595917,847.315857 343.785248,853.703003 345.496765,860.528687 
	C340.701508,860.932861 336.384033,860.898621 332.066559,860.864380 
z"/>
<path fill="#A47B00" opacity="1.000000" stroke="none" 
	d="
M332.109985,861.252930 
	C336.384033,860.898621 340.701508,860.932861 345.476562,860.915955 
	C345.856079,864.035767 343.887329,865.259460 341.104889,864.951965 
	C337.902008,864.597961 333.584534,866.879883 332.109985,861.252930 
z"/>
<path fill="#000000" opacity="1.000000" stroke="none" 
	d="
M506.072723,873.978088 
	C506.072723,861.863281 506.072723,849.748413 506.072723,836.606323 
	C511.437317,837.162415 516.488953,837.306580 521.366211,838.303528 
	C525.821167,839.214111 529.786560,846.046265 529.998596,852.075195 
	C530.115479,855.398682 530.022095,858.729675 529.652405,862.696777 
	C528.033569,868.536682 525.001831,872.238708 519.638184,873.090393 
	C515.181702,873.797974 510.599335,873.712341 506.072723,873.978088 
z"/>
<path fill="#A27900" opacity="1.000000" stroke="none" 
	d="
M505.904663,874.257446 
	C510.599335,873.712341 515.181702,873.797974 519.638184,873.090393 
	C525.001831,872.238708 528.033569,868.536682 529.588806,863.156494 
	C530.928894,868.637146 527.949951,875.092346 522.339355,877.002380 
	C518.227905,878.402100 513.598572,878.594604 509.196838,878.614563 
	C508.049652,878.619812 506.890350,875.968201 505.904663,874.257446 
z"/>
<path fill="#9E7700" opacity="1.000000" stroke="none" 
	d="
M752.647827,762.008972 
	C753.425537,761.014099 754.589783,759.286499 755.906677,759.160950 
	C759.850098,758.785095 763.857849,758.915039 767.831848,759.070496 
	C773.585083,759.295593 779.330688,759.716125 785.543396,760.118042 
	C784.434204,761.077637 782.858704,762.745544 781.288635,762.740479 
	C771.893127,762.710266 762.498901,762.294861 752.647827,762.008972 
z"/>
</svg>