<svg version="1.1" id="Layer_1" xmlns="http://www.w3.org/2000/svg" xmlns:xlink="http://www.w3.org/1999/xlink" x="0px" y="0px"
	 width="100%" viewBox="0 0 1024 1025" enable-background="new 0 0 1024 1025" xml:space="preserve">
<path fill="#FFFFFF" opacity="1.000000" stroke="none" 
	d="
M1025.000000,247.000000 
	C1025.000000,424.358246 1025.000000,601.716492 1024.617554,779.234253 
	C1023.823547,780.573853 1023.150879,781.731140 1023.046082,782.937805 
	C1022.605591,788.009216 1022.530579,793.117188 1021.964478,798.171814 
	C1020.406616,812.080505 1019.093201,826.036255 1016.904724,839.850037 
	C1013.466553,861.551819 1006.661743,882.211365 995.921509,901.490601 
	C980.053955,929.973633 959.725708,954.571960 933.916260,974.724365 
	C913.042969,991.022522 890.778442,1004.789490 865.156128,1011.732483 
	C848.232056,1016.318420 830.772400,1019.131104 813.410706,1021.822693 
	C802.899597,1023.452209 792.114502,1023.291809 781.463196,1024.080688 
	C780.599548,1024.144775 779.819092,1025.333740 779.000000,1026.000000 
	C601.975098,1026.000000 424.950165,1026.000000 247.765717,1025.617554 
	C246.426239,1024.823608 245.269012,1024.150757 244.062424,1024.046021 
	C238.991058,1023.605469 233.882996,1023.530579 228.828415,1022.964417 
	C214.919754,1021.406677 200.964096,1020.092957 187.150223,1017.904968 
	C165.448120,1014.467529 144.788605,1007.663208 125.509323,996.921875 
	C97.026970,981.053223 72.428154,960.725830 52.275742,934.916382 
	C35.977627,914.043091 22.210457,891.778625 15.267657,866.156189 
	C10.681819,849.232117 7.868957,831.772461 5.177364,814.410767 
	C3.547817,803.899658 3.708165,793.114624 2.919139,782.463318 
	C2.855157,781.599609 1.666210,780.819153 1.000004,780.000000 
	C1.000000,602.641724 1.000000,425.283508 1.382431,247.765747 
	C2.176397,246.426193 2.849174,245.268860 2.953987,244.062180 
	C3.394488,238.990814 3.469447,233.882767 4.035582,228.828171 
	C5.593410,214.919510 6.906707,200.963760 9.095185,187.149963 
	C12.533325,165.448196 19.338257,144.788666 30.078514,125.509407 
	C45.946053,97.026451 66.274239,72.428101 92.083710,52.275764 
	C112.957024,35.977631 135.221497,22.210447 160.843887,15.267612 
	C177.767975,10.681733 195.227631,7.868935 212.589355,5.177353 
	C223.100403,3.547828 233.885529,3.708164 244.536743,2.919136 
	C245.400482,2.855153 246.180878,1.666205 247.000000,1.000001 
	C424.024902,1.000000 601.049805,1.000000 778.234253,1.382486 
	C779.573853,2.176475 780.731079,2.849193 781.937744,2.954003 
	C787.009155,3.394482 792.117126,3.469442 797.171753,4.035580 
	C811.080444,5.593407 825.036072,6.906796 838.849915,9.095145 
	C860.551758,12.533108 881.211243,19.338263 900.490479,30.078474 
	C928.973511,45.945953 953.571777,66.274170 973.724121,92.083626 
	C990.022217,112.957016 1003.789612,135.221420 1010.732361,160.843918 
	C1015.318176,177.768036 1018.131165,195.227646 1020.822754,212.589386 
	C1022.452332,223.100418 1022.291870,233.885529 1023.080872,244.536728 
	C1023.144897,245.400467 1024.333862,246.180862 1025.000000,247.000000 
M205.965912,608.385437 
	C203.246765,600.651306 200.527618,592.917175 197.692062,584.851990 
	C186.538910,585.587769 174.945953,586.352661 163.248703,587.124329 
	C165.452881,610.545898 173.687149,630.864197 192.307755,645.105713 
	C224.954788,670.075012 261.196899,670.605957 298.298126,657.289124 
	C307.352142,654.039368 315.147369,647.282532 323.590637,642.095581 
	C323.590637,647.544861 323.590637,653.770325 323.590637,659.994385 
	C335.361206,659.994385 346.589111,659.994385 358.225311,659.994385 
	C358.225311,605.367188 358.225311,551.048645 358.225311,496.730133 
	C358.496979,496.681213 358.768646,496.632263 359.040314,496.583344 
	C379.081360,551.022095 399.122375,605.460876 419.153229,659.871948 
	C432.070435,659.871948 444.717926,659.871948 457.639801,659.871948 
	C477.749847,605.260681 497.851257,550.672791 517.952698,496.084930 
	C518.351257,496.189056 518.749756,496.293182 519.148315,496.397308 
	C519.148315,550.987610 519.148315,605.577881 519.148315,660.051147 
	C530.611084,660.051147 541.709106,660.051147 553.312805,660.051147 
	C553.312805,594.907837 553.312805,530.015930 553.312805,465.131592 
	C567.281067,465.131592 580.737610,465.131592 594.731201,465.131592 
	C594.731201,530.215027 594.731201,595.099976 594.731201,660.143127 
	C606.370972,660.143127 617.471802,660.143127 629.056641,660.143127 
	C629.056641,595.104065 629.056641,530.205994 629.056641,464.786743 
	C652.588684,464.786743 675.642517,464.786743 698.680969,464.786743 
	C698.680969,454.000122 698.680969,443.739014 698.680969,433.217346 
	C697.651611,433.159637 696.854370,433.075928 696.057190,433.075836 
	C633.892334,433.069550 571.727417,433.101715 509.562836,432.979401 
	C506.308105,432.972992 505.444427,434.328125 504.490265,436.980652 
	C487.299042,484.770325 470.009888,532.524780 452.722321,580.279785 
	C448.084717,593.090515 443.382782,605.877930 438.373596,619.598633 
	C415.649750,556.822144 393.281647,495.028503 370.950073,433.335693 
	C355.074951,433.335693 339.488007,433.335693 323.274048,433.335693 
	C323.274048,444.896118 323.274048,456.200378 323.274048,466.457367 
	C316.663666,459.522034 310.483765,451.607056 302.924072,445.362366 
	C274.760071,422.097504 223.843430,423.968597 197.548157,439.985229 
	C163.969467,460.438263 163.147583,500.582520 174.214066,521.858765 
	C180.552383,534.044739 191.550507,541.262329 203.889359,545.717407 
	C219.944931,551.514465 236.469940,556.021057 252.826935,560.970703 
	C265.873871,564.918640 279.112183,568.472412 290.269592,576.760010 
	C309.354767,590.936279 305.852814,620.067749 283.998535,629.346985 
	C271.842041,634.508545 259.026398,634.797302 246.172165,633.576904 
	C228.950745,631.941833 214.999268,624.674255 205.965912,608.385437 
M749.499939,589.171448 
	C768.253052,589.171448 787.006226,589.171448 805.889832,589.171448 
	C805.889832,575.697998 806.454285,562.711365 805.726746,549.797546 
	C805.037231,537.558105 800.247864,526.817932 789.537048,519.737488 
	C778.154480,512.212891 765.444092,511.574982 752.540894,513.775513 
	C735.893250,516.614624 724.660278,526.471375 722.140015,543.118408 
	C719.871582,558.101807 720.217529,573.481018 719.384521,589.171448 
	C729.927124,589.171448 739.213501,589.171448 749.499939,589.171448 
M772.036011,599.099976 
	C765.978088,599.099976 759.920227,599.099976 753.515564,599.099976 
	C753.515564,611.842773 753.515564,624.280701 753.515564,636.744324 
	C748.588867,636.744324 744.024780,636.744324 739.100830,636.744324 
	C739.100830,623.496460 739.100830,610.564819 739.100830,597.454346 
	C732.675171,597.454346 726.619568,597.454346 720.415649,597.454346 
	C720.415649,618.656982 720.415649,639.565430 720.415649,660.645630 
	C749.054260,660.645630 777.437378,660.645630 805.840942,660.645630 
	C805.840942,639.099243 805.840942,617.842102 805.840942,596.460754 
	C799.541809,596.460754 793.482178,596.460754 786.915649,596.460754 
	C786.915649,610.144470 786.915649,623.536194 786.915649,636.745850 
	C781.812622,636.745850 777.225403,636.745850 772.448303,636.745850 
	C772.448303,624.265076 772.448303,612.104004 772.036011,599.099976 
M783.806580,481.568970 
	C780.285645,482.353455 776.778748,483.730957 773.241272,483.814423 
	C761.253174,484.097382 749.254272,483.922424 737.259460,483.922455 
	C731.828430,483.922455 726.397339,483.922455 721.042236,483.922455 
	C721.042236,492.042053 721.042236,499.607758 721.042236,507.281219 
	C739.714844,507.281219 758.039429,507.573273 776.349915,507.190826 
	C791.594971,506.872375 802.153748,498.506592 805.969727,483.730103 
	C807.481567,477.875671 808.116882,471.507111 807.662964,465.484802 
	C806.075562,444.426270 793.371704,433.067993 772.332214,433.066071 
	C758.671448,433.064819 745.010742,433.065887 731.349976,433.065887 
	C727.907593,433.065887 724.465271,433.065857 720.954407,433.065857 
	C720.954407,441.170563 720.954407,448.772186 720.954407,456.706665 
	C722.857727,456.706665 724.496704,456.706635 726.135620,456.706696 
	C742.295288,456.707306 758.454956,456.709991 774.614624,456.707520 
	C780.468994,456.706635 785.806824,458.055237 787.951050,464.183228 
	C790.101501,470.329041 789.864075,476.344055 783.806580,481.568970 
M847.758362,380.051514 
	C845.315796,380.051514 842.873169,380.051514 840.377930,380.051514 
	C840.377930,389.520569 840.377930,398.713074 840.377930,407.756714 
	C842.474976,407.756714 844.230591,407.756714 846.150757,407.756714 
	C846.150757,401.768738 846.150757,396.047363 846.150757,390.325989 
	C848.752441,395.148529 850.591553,400.213074 852.754883,405.135162 
	C853.283508,406.337830 854.896179,407.838745 855.971252,407.808441 
	C857.044617,407.778198 858.483582,406.186859 859.039612,404.953918 
	C861.017700,400.567566 862.687744,396.042267 864.474426,391.569550 
	C864.839172,391.662506 865.203857,391.755432 865.568604,391.848389 
	C865.568604,397.176300 865.568604,402.504242 865.568604,407.809753 
	C867.753662,407.809753 869.532471,407.809753 871.521179,407.809753 
	C871.521179,398.519196 871.521179,389.444153 871.521179,380.134155 
	C868.713928,380.134155 866.121155,380.134155 863.473022,380.134155 
	C861.030273,386.443909 858.632874,392.636292 855.853577,399.815369 
	C853.064331,392.603851 850.738953,386.591766 847.758362,380.051514 
M827.574524,401.345184 
	C827.574524,395.767609 827.574524,390.190033 827.574524,384.702484 
	C836.903381,383.881744 836.903381,383.881744 836.003906,380.169098 
	C828.069397,380.169098 820.158325,380.169098 812.003479,380.169098 
	C812.184387,381.700653 812.328674,382.921753 812.506470,384.426331 
	C815.473755,384.426331 818.088257,384.426331 821.226685,384.426331 
	C821.226685,392.453461 821.226685,400.164795 821.226685,407.857391 
	C823.551514,407.857391 825.342712,407.857391 827.574463,407.857391 
	C827.574463,405.886322 827.574463,404.091736 827.574524,401.345184 
z"/>
<path fill="#000000" opacity="1.000000" stroke="none" 
	d="
M246.531342,1.000001 
	C246.180878,1.666205 245.400482,2.855153 244.536743,2.919136 
	C233.885529,3.708164 223.100403,3.547828 212.589355,5.177353 
	C195.227631,7.868935 177.767975,10.681733 160.843887,15.267612 
	C135.221497,22.210447 112.957024,35.977631 92.083710,52.275764 
	C66.274239,72.428101 45.946053,97.026451 30.078514,125.509407 
	C19.338257,144.788666 12.533325,165.448196 9.095185,187.149963 
	C6.906707,200.963760 5.593410,214.919510 4.035582,228.828171 
	C3.469447,233.882767 3.394488,238.990814 2.953987,244.062180 
	C2.849174,245.268860 2.176397,246.426193 1.382431,247.303116 
	C1.000000,165.072968 1.000000,83.145920 1.000000,1.000000 
	C82.687431,1.000000 164.375061,1.000000 246.531342,1.000001 
z"/>
<path fill="#000000" opacity="1.000000" stroke="none" 
	d="
M1025.000000,246.531342 
	C1024.333862,246.180862 1023.144897,245.400467 1023.080872,244.536728 
	C1022.291870,233.885529 1022.452332,223.100418 1020.822754,212.589386 
	C1018.131165,195.227646 1015.318176,177.768036 1010.732361,160.843918 
	C1003.789612,135.221420 990.022217,112.957016 973.724121,92.083626 
	C953.571777,66.274170 928.973511,45.945953 900.490479,30.078474 
	C881.211243,19.338263 860.551758,12.533108 838.849915,9.095145 
	C825.036072,6.906796 811.080444,5.593407 797.171753,4.035580 
	C792.117126,3.469442 787.009155,3.394482 781.937744,2.954003 
	C780.731079,2.849193 779.573853,2.176475 778.696899,1.382486 
	C860.927063,1.000000 942.854065,1.000000 1025.000000,1.000000 
	C1025.000000,82.687431 1025.000000,164.375061 1025.000000,246.531342 
z"/>
<path fill="#000000" opacity="1.000000" stroke="none" 
	d="
M1.000004,780.468628 
	C1.666210,780.819153 2.855157,781.599609 2.919139,782.463318 
	C3.708165,793.114624 3.547817,803.899658 5.177364,814.410767 
	C7.868957,831.772461 10.681819,849.232117 15.267657,866.156189 
	C22.210457,891.778625 35.977627,914.043091 52.275742,934.916382 
	C72.428154,960.725830 97.026970,981.053223 125.509323,996.921875 
	C144.788605,1007.663208 165.448120,1014.467529 187.150223,1017.904968 
	C200.964096,1020.092957 214.919754,1021.406677 228.828415,1022.964417 
	C233.882996,1023.530579 238.991058,1023.605469 244.062424,1024.046021 
	C245.269012,1024.150757 246.426239,1024.823608 247.303101,1025.617554 
	C165.072968,1026.000000 83.145920,1026.000000 1.000000,1026.000000 
	C1.000000,944.312561 1.000000,862.624939 1.000004,780.468628 
z"/>
<path fill="#000000" opacity="1.000000" stroke="none" 
	d="
M779.468628,1026.000000 
	C779.819092,1025.333740 780.599548,1024.144775 781.463196,1024.080688 
	C792.114502,1023.291809 802.899597,1023.452209 813.410706,1021.822693 
	C830.772400,1019.131104 848.232056,1016.318420 865.156128,1011.732483 
	C890.778442,1004.789490 913.042969,991.022522 933.916260,974.724365 
	C959.725708,954.571960 980.053955,929.973633 995.921509,901.490601 
	C1006.661743,882.211365 1013.466553,861.551819 1016.904724,839.850037 
	C1019.093201,826.036255 1020.406616,812.080505 1021.964478,798.171814 
	C1022.530579,793.117188 1022.605591,788.009216 1023.046082,782.937805 
	C1023.150879,781.731140 1023.823547,780.573853 1024.617554,779.696899 
	C1025.000000,861.927063 1025.000000,943.854065 1025.000000,1026.000000 
	C943.312561,1026.000000 861.624939,1026.000000 779.468628,1026.000000 
z"/>
<path fill="#010101" opacity="1.000000" stroke="none" 
	d="
M206.119324,608.723389 
	C214.999268,624.674255 228.950745,631.941833 246.172165,633.576904 
	C259.026398,634.797302 271.842041,634.508545 283.998535,629.346985 
	C305.852814,620.067749 309.354767,590.936279 290.269592,576.760010 
	C279.112183,568.472412 265.873871,564.918640 252.826935,560.970703 
	C236.469940,556.021057 219.944931,551.514465 203.889359,545.717407 
	C191.550507,541.262329 180.552383,534.044739 174.214066,521.858765 
	C163.147583,500.582520 163.969467,460.438263 197.548157,439.985229 
	C223.843430,423.968597 274.760071,422.097504 302.924072,445.362366 
	C310.483765,451.607056 316.663666,459.522034 323.274048,466.457367 
	C323.274048,456.200378 323.274048,444.896118 323.274048,433.335693 
	C339.488007,433.335693 355.074951,433.335693 370.950073,433.335693 
	C393.281647,495.028503 415.649750,556.822144 438.373596,619.598633 
	C443.382782,605.877930 448.084717,593.090515 452.722321,580.279785 
	C470.009888,532.524780 487.299042,484.770325 504.490265,436.980652 
	C505.444427,434.328125 506.308105,432.972992 509.562836,432.979401 
	C571.727417,433.101715 633.892334,433.069550 696.057190,433.075836 
	C696.854370,433.075928 697.651611,433.159637 698.680969,433.217346 
	C698.680969,443.739014 698.680969,454.000122 698.680969,464.786743 
	C675.642517,464.786743 652.588684,464.786743 629.056641,464.786743 
	C629.056641,530.205994 629.056641,595.104065 629.056641,660.143127 
	C617.471802,660.143127 606.370972,660.143127 594.731201,660.143127 
	C594.731201,595.099976 594.731201,530.215027 594.731201,465.131592 
	C580.737610,465.131592 567.281067,465.131592 553.312805,465.131592 
	C553.312805,530.015930 553.312805,594.907837 553.312805,660.051147 
	C541.709106,660.051147 530.611084,660.051147 519.148315,660.051147 
	C519.148315,605.577881 519.148315,550.987610 519.148315,496.397308 
	C518.749756,496.293182 518.351257,496.189056 517.952698,496.084930 
	C497.851257,550.672791 477.749847,605.260681 457.639801,659.871948 
	C444.717926,659.871948 432.070435,659.871948 419.153229,659.871948 
	C399.122375,605.460876 379.081360,551.022095 359.040314,496.583344 
	C358.768646,496.632263 358.496979,496.681213 358.225311,496.730133 
	C358.225311,551.048645 358.225311,605.367188 358.225311,659.994385 
	C346.589111,659.994385 335.361206,659.994385 323.590637,659.994385 
	C323.590637,653.770325 323.590637,647.544861 323.590637,642.095581 
	C315.147369,647.282532 307.352142,654.039368 298.298126,657.289124 
	C261.196899,670.605957 224.954788,670.075012 192.307755,645.105713 
	C173.687149,630.864197 165.452881,610.545898 163.248703,587.124329 
	C174.945953,586.352661 186.538910,585.587769 197.692062,584.851990 
	C200.527618,592.917175 203.246765,600.651306 206.119324,608.723389 
M217.107010,516.447815 
	C225.633255,519.656555 233.987930,523.464661 242.717392,525.963440 
	C270.698792,533.973083 300.062073,538.455994 323.125427,559.634583 
	C323.125427,540.205627 323.125427,521.542725 323.125427,502.579987 
	C314.625641,502.989014 306.522064,503.378967 298.251770,503.776947 
	C297.885162,502.213318 297.507538,500.794647 297.222198,499.357666 
	C290.160522,463.792572 246.567963,446.693634 216.495544,467.252716 
	C199.432846,478.917664 199.330978,508.234528 217.107010,516.447815 
z"/>
<path fill="#020202" opacity="1.000000" stroke="none" 
	d="
M748.999878,589.171448 
	C739.213501,589.171448 729.927124,589.171448 719.384521,589.171448 
	C720.217529,573.481018 719.871582,558.101807 722.140015,543.118408 
	C724.660278,526.471375 735.893250,516.614624 752.540894,513.775513 
	C765.444092,511.574982 778.154480,512.212891 789.537048,519.737488 
	C800.247864,526.817932 805.037231,537.558105 805.726746,549.797546 
	C806.454285,562.711365 805.889832,575.697998 805.889832,589.171448 
	C787.006226,589.171448 768.253052,589.171448 748.999878,589.171448 
M760.499939,565.528564 
	C769.275635,565.528564 778.051392,565.528564 787.067078,565.528564 
	C787.067078,561.814514 787.155640,558.659668 787.050659,555.511230 
	C786.727722,545.828003 781.989624,539.677551 772.484863,538.144958 
	C766.838440,537.234375 760.853149,537.149170 755.186462,537.918213 
	C744.810852,539.326294 740.182556,544.728577 739.251526,555.209961 
	C738.962280,558.466431 739.206482,561.770264 739.206482,565.528503 
	C746.248901,565.528503 752.874451,565.528503 760.499939,565.528564 
z"/>
<path fill="#030303" opacity="1.000000" stroke="none" 
	d="
M772.242188,599.521484 
	C772.448303,612.104004 772.448303,624.265076 772.448303,636.745850 
	C777.225403,636.745850 781.812622,636.745850 786.915649,636.745850 
	C786.915649,623.536194 786.915649,610.144470 786.915649,596.460754 
	C793.482178,596.460754 799.541809,596.460754 805.840942,596.460754 
	C805.840942,617.842102 805.840942,639.099243 805.840942,660.645630 
	C777.437378,660.645630 749.054260,660.645630 720.415649,660.645630 
	C720.415649,639.565430 720.415649,618.656982 720.415649,597.454346 
	C726.619568,597.454346 732.675171,597.454346 739.100830,597.454346 
	C739.100830,610.564819 739.100830,623.496460 739.100830,636.744324 
	C744.024780,636.744324 748.588867,636.744324 753.515564,636.744324 
	C753.515564,624.280701 753.515564,611.842773 753.515564,599.099976 
	C759.920227,599.099976 765.978088,599.099976 772.242188,599.521484 
z"/>
<path fill="#030303" opacity="1.000000" stroke="none" 
	d="
M784.109070,481.322418 
	C789.864075,476.344055 790.101501,470.329041 787.951050,464.183228 
	C785.806824,458.055237 780.468994,456.706635 774.614624,456.707520 
	C758.454956,456.709991 742.295288,456.707306 726.135620,456.706696 
	C724.496704,456.706635 722.857727,456.706665 720.954407,456.706665 
	C720.954407,448.772186 720.954407,441.170563 720.954407,433.065857 
	C724.465271,433.065857 727.907593,433.065887 731.349976,433.065887 
	C745.010742,433.065887 758.671448,433.064819 772.332214,433.066071 
	C793.371704,433.067993 806.075562,444.426270 807.662964,465.484802 
	C808.116882,471.507111 807.481567,477.875671 805.969727,483.730103 
	C802.153748,498.506592 791.594971,506.872375 776.349915,507.190826 
	C758.039429,507.573273 739.714844,507.281219 721.042236,507.281219 
	C721.042236,499.607758 721.042236,492.042053 721.042236,483.922455 
	C726.397339,483.922455 731.828430,483.922455 737.259460,483.922455 
	C749.254272,483.922424 761.253174,484.097382 773.241272,483.814423 
	C776.778748,483.730957 780.285645,482.353455 784.109070,481.322418 
z"/>
<path fill="#0D0D0D" opacity="1.000000" stroke="none" 
	d="
M848.085999,380.315613 
	C850.738953,386.591766 853.064331,392.603851 855.853577,399.815369 
	C858.632874,392.636292 861.030273,386.443909 863.473022,380.134155 
	C866.121155,380.134155 868.713928,380.134155 871.521179,380.134155 
	C871.521179,389.444153 871.521179,398.519196 871.521179,407.809753 
	C869.532471,407.809753 867.753662,407.809753 865.568604,407.809753 
	C865.568604,402.504242 865.568604,397.176300 865.568604,391.848389 
	C865.203857,391.755432 864.839172,391.662506 864.474426,391.569550 
	C862.687744,396.042267 861.017700,400.567566 859.039612,404.953918 
	C858.483582,406.186859 857.044617,407.778198 855.971252,407.808441 
	C854.896179,407.838745 853.283508,406.337830 852.754883,405.135162 
	C850.591553,400.213074 848.752441,395.148529 846.150757,390.325989 
	C846.150757,396.047363 846.150757,401.768738 846.150757,407.756714 
	C844.230591,407.756714 842.474976,407.756714 840.377930,407.756714 
	C840.377930,398.713074 840.377930,389.520569 840.377930,380.051514 
	C842.873169,380.051514 845.315796,380.051514 848.085999,380.315613 
M865.403381,390.888641 
	C865.434265,390.388245 865.465149,389.887848 865.496033,389.387451 
	C865.312683,389.741272 865.129333,390.095093 865.403381,390.888641 
z"/>
<path fill="#131313" opacity="1.000000" stroke="none" 
	d="
M827.574463,401.821167 
	C827.574463,404.091736 827.574463,405.886322 827.574463,407.857391 
	C825.342712,407.857391 823.551514,407.857391 821.226685,407.857391 
	C821.226685,400.164795 821.226685,392.453461 821.226685,384.426331 
	C818.088257,384.426331 815.473755,384.426331 812.506470,384.426331 
	C812.328674,382.921753 812.184387,381.700653 812.003479,380.169098 
	C820.158325,380.169098 828.069397,380.169098 836.003906,380.169098 
	C836.903381,383.881744 836.903381,383.881744 827.574524,384.702484 
	C827.574524,390.190033 827.574524,395.767609 827.574463,401.821167 
z"/>
<path fill="#FDFDFD" opacity="1.000000" stroke="none" 
	d="
M216.789734,516.259766 
	C199.330978,508.234528 199.432846,478.917664 216.495544,467.252716 
	C246.567963,446.693634 290.160522,463.792572 297.222198,499.357666 
	C297.507538,500.794647 297.885162,502.213318 298.251770,503.776947 
	C306.522064,503.378967 314.625641,502.989014 323.125427,502.579987 
	C323.125427,521.542725 323.125427,540.205627 323.125427,559.634583 
	C300.062073,538.455994 270.698792,533.973083 242.717392,525.963440 
	C233.987930,523.464661 225.633255,519.656555 216.789734,516.259766 
z"/>
<path fill="#F8F8F8" opacity="1.000000" stroke="none" 
	d="
M760.000000,565.528564 
	C752.874451,565.528503 746.248901,565.528503 739.206482,565.528503 
	C739.206482,561.770264 738.962280,558.466431 739.251526,555.209961 
	C740.182556,544.728577 744.810852,539.326294 755.186462,537.918213 
	C760.853149,537.149170 766.838440,537.234375 772.484863,538.144958 
	C781.989624,539.677551 786.727722,545.828003 787.050659,555.511230 
	C787.155640,558.659668 787.067078,561.814514 787.067078,565.528564 
	C778.051392,565.528564 769.275635,565.528564 760.000000,565.528564 
z"/>
<path fill="#FFFFFF" opacity="1.000000" stroke="none" 
	d="
M865.174683,390.668762 
	C865.129333,390.095093 865.312683,389.741272 865.496094,389.387451 
	C865.465149,389.887848 865.434265,390.388245 865.174683,390.668762 
z"/>
</svg>