<svg xmlns="http://www.w3.org/2000/svg" viewBox="0 0 192 192" width="192" height="192">
  <path fill="#28A745" d="M56 24c-8.8 0-16 7.2-16 16v112c0 8.8 7.2 16 16 16h80c8.8 0 16-7.2 16-16V56L120 24H56zm0 8h60v28h28v92c0 4.4-3.6 8-8 8H56c-4.4 0-8-3.6-8-8V40c0-4.4 3.6-8 8-8zm12 40c-2.2 0-4 1.8-4 4s1.8 4 4 4h56c2.2 0 4-1.8 4-4s-1.8-4-4-4H68zm0 16c-2.2 0-4 1.8-4 4s1.8 4 4 4h56c2.2 0 4-1.8 4-4s-1.8-4-4-4H68zm0 16c-2.2 0-4 1.8-4 4s1.8 4 4 4h56c2.2 0 4-1.8 4-4s-1.8-4-4-4H68zm0 16c-2.2 0-4 1.8-4 4s1.8 4 4 4h28c2.2 0 4-1.8 4-4s-1.8-4-4-4H68z"/>
</svg>
