<svg xmlns="http://www.w3.org/2000/svg" viewBox="0 0 192 192" width="192" height="192">
  <path fill="#28A745" d="M48 24c-8.8 0-16 7.2-16 16v112c0 8.8 7.2 16 16 16h96c8.8 0 16-7.2 16-16V40c0-8.8-7.2-16-16-16H48zm0 8h96c4.4 0 8 3.6 8 8v112c0 4.4-3.6 8-8 8H48c-4.4 0-8-3.6-8-8V40c0-4.4 3.6-8 8-8zm0 16v16h96V48H48zm0 24v16h16V72H48zm24 0v16h16V72H72zm24 0v16h16V72H96zm24 0v16h16V72h-16zm-72 24v16h16v-16H48zm24 0v16h16v-16H72zm24 0v16h16v-16H96zm24 0v16h16v-16h-16zm-72 24v16h16v-16H48zm24 0v16h16v-16H72zm24 0v16h16v-16H96zm24 0v16h16v-16h-16z"/>
</svg>
